999
dxflib 2.2.0.0
  0
SECTION
  2
HEADER
  9
$ACADVER
  1
AC1015
  9
$HANDSEED
  5
FFFF
  9
$DIMASZ
 40
2.5
  9
$PLIMMIN
 10
0.0
 20
0.0
  9
$DIMEXE
 40
1.25
  9
$DIMGAP
 40
0.625
  9
$PLIMMAX
 10
210.0
 20
297.0
  9
$INSUNITS
 70
4
  9
$DIMSTYLE
  2
Standard
  9
$DIMEXO
 40
0.625
  9
$DIMTXT
 40
2.5
  0
ENDSEC
  0
SECTION
  2
TABLES
  0
TABLE
  2
VPORT
  5
8
100
AcDbSymbolTable
 70
1
  0
VPORT
  5
30
100
AcDbSymbolTableRecord
100
AcDbViewportTableRecord
  2
*Active
 70
0
 10
0.0
 20
0.0
 11
1.0
 21
1.0
 12
286.3055555555554861
 22
148.5
 13
0.0
 23
0.0
 14
10.0
 24
10.0
 15
10.0
 25
10.0
 16
0.0
 26
0.0
 36
1.0
 17
0.0
 27
0.0
 37
0.0
 40
297.0
 41
1.92798353909465
 42
50.0
 43
0.0
 44
0.0
 50
0.0
 51
0.0
 71
0
 72
100
 73
1
 74
3
 75
1
 76
1
 77
0
 78
0
281
0
 65
1
110
0.0
120
0.0
130
0.0
111
1.0
121
0.0
131
0.0
112
0.0
122
1.0
132
0.0
 79
0
146
0.0
  0
ENDTAB
  0
TABLE
  2
LTYPE
  5
5
100
AcDbSymbolTable
 70
21
  0
LTYPE
  5
14
100
AcDbSymbolTableRecord
100
AcDbLinetypeTableRecord
  2
ByBlock
 70
0
  3

 72
65
 73
0
 40
0.0
  0
LTYPE
  5
15
100
AcDbSymbolTableRecord
100
AcDbLinetypeTableRecord
  2
ByLayer
 70
0
  3

 72
65
 73
0
 40
0.0
  0
LTYPE
  5
16
100
AcDbSymbolTableRecord
100
AcDbLinetypeTableRecord
  2
CONTINUOUS
 70
0
  3
Solid line
 72
65
 73
0
 40
0.0
  0
LTYPE
  5
31
100
AcDbSymbolTableRecord
100
AcDbLinetypeTableRecord
  2
DOT
 70
0
  3
Dot . . . . . . . . . . . . . . . . . . . . . .
 72
65
 73
2
 40
6.3499999999999996
 49
0.0
 74
0
 49
-6.3499999999999996
 74
0
  0
LTYPE
  5
32
100
AcDbSymbolTableRecord
100
AcDbLinetypeTableRecord
  2
DOT2
 70
0
  3
Dot (.5x) .....................................
 72
65
 73
2
 40
3.1749999999999998
 49
0.0
 74
0
 49
-3.1749999999999998
 74
0
  0
LTYPE
  5
33
100
AcDbSymbolTableRecord
100
AcDbLinetypeTableRecord
  2
DOTX2
 70
0
  3
Dot (2x) .  .  .  .  .  .  .  .  .  .  .  .  .
 72
65
 73
2
 40
12.6999999999999993
 49
0.0
 74
0
 49
-12.6999999999999993
 74
0
  0
LTYPE
  5
34
100
AcDbSymbolTableRecord
100
AcDbLinetypeTableRecord
  2
DASHED
 70
0
  3
Dashed __ __ __ __ __ __ __ __ __ __ __ __ __ _
 72
65
 73
2
 40
19.0500000000000007
 49
12.6999999999999993
 74
0
 49
-6.3499999999999996
 74
0
  0
LTYPE
  5
35
100
AcDbSymbolTableRecord
100
AcDbLinetypeTableRecord
  2
DASHED2
 70
0
  3
Dashed (.5x) _ _ _ _ _ _ _ _ _ _ _ _ _ _ _ _ _
 72
65
 73
2
 40
9.5250000000000004
 49
6.3499999999999996
 74
0
 49
-3.1749999999999998
 74
0
  0
LTYPE
  5
36
100
AcDbSymbolTableRecord
100
AcDbLinetypeTableRecord
  2
DASHEDX2
 70
0
  3
Dashed (2x) ____  ____  ____  ____  ____  ___
 72
65
 73
2
 40
38.1000000000000014
 49
25.3999999999999986
 74
0
 49
-12.6999999999999993
 74
0
  0
LTYPE
  5
37
100
AcDbSymbolTableRecord
100
AcDbLinetypeTableRecord
  2
DASHDOT
 70
0
  3
Dash dot __ . __ . __ . __ . __ . __ . __ . __
 72
65
 73
4
 40
25.3999999999999986
 49
12.6999999999999993
 74
0
 49
-6.3499999999999996
 74
0
 49
0.0
 74
0
 49
-6.3499999999999996
 74
0
  0
LTYPE
  5
38
100
AcDbSymbolTableRecord
100
AcDbLinetypeTableRecord
  2
DASHDOT2
 70
0
  3
Dash dot (.5x) _._._._._._._._._._._._._._._.
 72
65
 73
4
 40
12.6999999999999993
 49
6.3499999999999996
 74
0
 49
-3.1749999999999998
 74
0
 49
0.0
 74
0
 49
-3.1749999999999998
 74
0
  0
LTYPE
  5
39
100
AcDbSymbolTableRecord
100
AcDbLinetypeTableRecord
  2
DASHDOTX2
 70
0
  3
Dash dot (2x) ____  .  ____  .  ____  .  ___
 72
65
 73
4
 40
50.7999999999999972
 49
25.3999999999999986
 74
0
 49
-12.6999999999999993
 74
0
 49
0.0
 74
0
 49
-12.6999999999999993
 74
0
  0
LTYPE
  5
3A
100
AcDbSymbolTableRecord
100
AcDbLinetypeTableRecord
  2
DIVIDE
 70
0
  3
Divide ____ . . ____ . . ____ . . ____ . . ____
 72
65
 73
6
 40
31.75
 49
12.6999999999999993
 74
0
 49
-6.3499999999999996
 74
0
 49
0.0
 74
0
 49
-6.3499999999999996
 74
0
 49
0.0
 74
0
 49
-6.3499999999999996
 74
0
  0
LTYPE
  5
3B
100
AcDbSymbolTableRecord
100
AcDbLinetypeTableRecord
  2
DIVIDE2
 70
0
  3
Divide (.5x) __..__..__..__..__..__..__..__.._
 72
65
 73
6
 40
15.875
 49
6.3499999999999996
 74
0
 49
-3.1749999999999998
 74
0
 49
0.0
 74
0
 49
-3.1749999999999998
 74
0
 49
0.0
 74
0
 49
-3.1749999999999998
 74
0
  0
LTYPE
  5
3C
100
AcDbSymbolTableRecord
100
AcDbLinetypeTableRecord
  2
DIVIDEX2
 70
0
  3
Divide (2x) ________  .  .  ________  .  .  _
 72
65
 73
6
 40
63.5
 49
25.3999999999999986
 74
0
 49
-12.6999999999999993
 74
0
 49
0.0
 74
0
 49
-12.6999999999999993
 74
0
 49
0.0
 74
0
 49
-12.6999999999999993
 74
0
  0
LTYPE
  5
3D
100
AcDbSymbolTableRecord
100
AcDbLinetypeTableRecord
  2
CENTER
 70
0
  3
Center ____ _ ____ _ ____ _ ____ _ ____ _ ____
 72
65
 73
4
 40
50.7999999999999972
 49
31.75
 74
0
 49
-6.3499999999999996
 74
0
 49
6.3499999999999996
 74
0
 49
-6.3499999999999996
 74
0
  0
LTYPE
  5
3E
100
AcDbSymbolTableRecord
100
AcDbLinetypeTableRecord
  2
CENTER2
 70
0
  3
Center (.5x) ___ _ ___ _ ___ _ ___ _ ___ _ ___
 72
65
 73
4
 40
28.5749999999999993
 49
19.0500000000000007
 74
0
 49
-3.1749999999999998
 74
0
 49
3.1749999999999998
 74
0
 49
-3.1749999999999998
 74
0
  0
LTYPE
  5
3F
100
AcDbSymbolTableRecord
100
AcDbLinetypeTableRecord
  2
CENTERX2
 70
0
  3
Center (2x) ________  __  ________  __  _____
 72
65
 73
4
 40
101.5999999999999943
 49
63.5
 74
0
 49
-12.6999999999999993
 74
0
 49
12.6999999999999993
 74
0
 49
-12.6999999999999993
 74
0
  0
LTYPE
  5
40
100
AcDbSymbolTableRecord
100
AcDbLinetypeTableRecord
  2
BORDER
 70
0
  3
Border __ __ . __ __ . __ __ . __ __ . __ __ .
 72
65
 73
6
 40
44.4500000000000028
 49
12.6999999999999993
 74
0
 49
-6.3499999999999996
 74
0
 49
12.6999999999999993
 74
0
 49
-6.3499999999999996
 74
0
 49
0.0
 74
0
 49
-6.3499999999999996
 74
0
  0
LTYPE
  5
41
100
AcDbSymbolTableRecord
100
AcDbLinetypeTableRecord
  2
BORDER2
 70
0
  3
Border (.5x) __.__.__.__.__.__.__.__.__.__.__.
 72
65
 73
6
 40
22.2250000000000014
 49
6.3499999999999996
 74
0
 49
-3.1749999999999998
 74
0
 49
6.3499999999999996
 74
0
 49
-3.1749999999999998
 74
0
 49
0.0
 74
0
 49
-3.1749999999999998
 74
0
  0
LTYPE
  5
42
100
AcDbSymbolTableRecord
100
AcDbLinetypeTableRecord
  2
BORDERX2
 70
0
  3
Border (2x) ____  ____  .  ____  ____  .  ___
 72
65
 73
6
 40
88.9000000000000057
 49
25.3999999999999986
 74
0
 49
-12.6999999999999993
 74
0
 49
25.3999999999999986
 74
0
 49
-12.6999999999999993
 74
0
 49
0.0
 74
0
 49
-12.6999999999999993
 74
0
  0
ENDTAB
  0
TABLE
  2
LAYER
  5
2
100
AcDbSymbolTable
 70
4
  0
LAYER
  5
10
100
AcDbSymbolTableRecord
100
AcDbLayerTableRecord
  2
0
 70
0
 62
7
  6
CONTINUOUS
370
0
390
F
  0
LAYER
  5
43
100
AcDbSymbolTableRecord
100
AcDbLayerTableRecord
  2
guide
 70
0
 62
2
  6
CONTINUOUS
370
0
390
F
  0
LAYER
  5
44
100
AcDbSymbolTableRecord
100
AcDbLayerTableRecord
  2
dimension
 70
0
 62
4
  6
CONTINUOUS
370
0
390
F
  0
LAYER
  5
45
100
AcDbSymbolTableRecord
100
AcDbLayerTableRecord
  2
noname
 70
0
 62
6
  6
CONTINUOUS
370
0
390
F
  0
ENDTAB
  0
TABLE
  2
STYLE
  5
3
100
AcDbSymbolTable
 70
1
  0
STYLE
  5
11
100
AcDbSymbolTableRecord
100
AcDbTextStyleTableRecord
  2
Standard
 70
0
 40
0.0
 41
0.75
 50
0.0
 71
0
 42
2.5
  3
txt
  4

  0
ENDTAB
  0
TABLE
  2
VIEW
  5
6
100
AcDbSymbolTable
 70
0
  0
ENDTAB
  0
TABLE
  2
UCS
  5
7
100
AcDbSymbolTable
 70
0
  0
ENDTAB
  0
TABLE
  2
APPID
  5
9
100
AcDbSymbolTable
 70
1
  0
APPID
  5
12
100
AcDbSymbolTableRecord
100
AcDbRegAppTableRecord
  2
ACAD
 70
0
  0
ENDTAB
  0
TABLE
  2
DIMSTYLE
  5
A
100
AcDbSymbolTable
 70
1
100
AcDbDimStyleTable
 71
0
  0
DIMSTYLE
105
27
100
AcDbSymbolTableRecord
100
AcDbDimStyleTableRecord
  2
Standard
 41
2.5
 42
0.625
 43
3.75
 44
1.25
 70
0
 73
0
 74
0
 77
1
 78
8
140
2.5
141
2.5
143
0.03937007874016
147
0.625
171
3
172
1
271
2
272
2
274
3
278
44
283
0
284
8
340
11
  0
ENDTAB
  0
TABLE
  2
BLOCK_RECORD
  5
1
100
AcDbSymbolTable
 70
1
  0
BLOCK_RECORD
  5
1F
100
AcDbSymbolTableRecord
100
AcDbBlockTableRecord
  2
*Model_Space
340
22
  0
BLOCK_RECORD
  5
1B
100
AcDbSymbolTableRecord
100
AcDbBlockTableRecord
  2
*Paper_Space
340
1E
  0
BLOCK_RECORD
  5
23
100
AcDbSymbolTableRecord
100
AcDbBlockTableRecord
  2
*Paper_Space0
340
26
  0
BLOCK_RECORD
  5
46
100
AcDbSymbolTableRecord
100
AcDbBlockTableRecord
  2
fdd_stepper-0
340
0
  0
BLOCK_RECORD
  5
47
100
AcDbSymbolTableRecord
100
AcDbBlockTableRecord
  2
servo_mount-0
340
0
  0
BLOCK_RECORD
  5
48
100
AcDbSymbolTableRecord
100
AcDbBlockTableRecord
  2
servo_mount-1
340
0
  0
BLOCK_RECORD
  5
49
100
AcDbSymbolTableRecord
100
AcDbBlockTableRecord
  2
servo_mount-2
340
0
  0
ENDTAB
  0
ENDSEC
  0
SECTION
  2
BLOCKS
  0
BLOCK
  5
20
100
AcDbEntity
  8
0
100
AcDbBlockBegin
  2
*Model_Space
 70
0
 10
0.0
 20
0.0
 30
0.0
  3
*Model_Space
  1

  0
ENDBLK
  5
21
100
AcDbEntity
  8
0
100
AcDbBlockEnd
  0
BLOCK
  5
1C
100
AcDbEntity
 67
1
  8
0
100
AcDbBlockBegin
  2
*Paper_Space
 70
0
 10
0.0
 20
0.0
 30
0.0
  3
*Paper_Space
  1

  0
ENDBLK
  5
1D
100
AcDbEntity
 67
1
  8
0
100
AcDbBlockEnd
  0
BLOCK
  5
24
100
AcDbEntity
  8
0
100
AcDbBlockBegin
  2
*Paper_Space0
 70
0
 10
0.0
 20
0.0
 30
0.0
  3
*Paper_Space0
  1

  0
ENDBLK
  5
25
100
AcDbEntity
  8
0
100
AcDbBlockEnd
  0
BLOCK
  5
4A
100
AcDbEntity
  8
0
100
AcDbBlockBegin
  2
fdd_stepper-0
 70
0
 10
0.0
 20
0.0
 30
0.0
  3
fdd_stepper-0
  1

  0
LINE
  5
4B
100
AcDbEntity
100
AcDbLine
  8
guide
 62
256
370
-1
  6
ByLayer
 10
0.0
 20
0.0
 30
0.0
 11
21.0
 21
0.0
 31
0.0
  0
LINE
  5
4C
100
AcDbEntity
100
AcDbLine
  8
guide
 62
256
370
-1
  6
ByLayer
 10
21.0
 20
0.0
 30
0.0
 11
21.0
 21
17.0
 31
0.0
  0
LINE
  5
4D
100
AcDbEntity
100
AcDbLine
  8
guide
 62
256
370
-1
  6
ByLayer
 10
21.0
 20
17.0
 30
0.0
 11
0.0
 21
17.0
 31
0.0
  0
LINE
  5
4E
100
AcDbEntity
100
AcDbLine
  8
guide
 62
256
370
-1
  6
ByLayer
 10
0.0
 20
17.0
 30
0.0
 11
0.0
 21
0.0
 31
0.0
  0
LINE
  5
4F
100
AcDbEntity
100
AcDbLine
  8
guide
 62
256
370
-1
  6
ByLayer
 10
0.0
 20
0.0
 30
0.0
 11
21.0
 21
17.0
 31
0.0
  0
LINE
  5
50
100
AcDbEntity
100
AcDbLine
  8
guide
 62
256
370
-1
  6
ByLayer
 10
0.0
 20
17.0
 30
0.0
 11
21.0
 21
0.0
 31
0.0
  0
CIRCLE
  5
51
100
AcDbEntity
100
AcDbCircle
  8
guide
 62
256
370
-1
  6
ByLayer
 10
10.5
 20
8.5
 30
0.0
 40
10.5
  0
CIRCLE
  5
52
100
AcDbEntity
100
AcDbCircle
  8
0
 62
256
370
-1
  6
ByLayer
 10
10.5
 20
8.5
 30
0.0
 40
3.25
  0
CIRCLE
  5
53
100
AcDbEntity
100
AcDbCircle
  8
0
 62
256
370
-1
  6
ByLayer
 10
13.6644140029689751
 20
18.5
 30
0.0
 40
1.5
  0
CIRCLE
  5
54
100
AcDbEntity
100
AcDbCircle
  8
0
 62
256
370
-1
  6
ByLayer
 10
7.3355859970310267
 20
18.5
 30
0.0
 40
1.5
  0
CIRCLE
  5
55
100
AcDbEntity
100
AcDbCircle
  8
0
 62
256
370
-1
  6
ByLayer
 10
13.6644140029689716
 20
-1.5000000000000018
 30
0.0
 40
1.5
  0
CIRCLE
  5
56
100
AcDbEntity
100
AcDbCircle
  8
0
 62
256
370
-1
  6
ByLayer
 10
7.3355859970310249
 20
-1.4999999999999982
 30
0.0
 40
1.5
  0
ENDBLK
  5
57
100
AcDbEntity
  8
0
100
AcDbBlockEnd
  0
BLOCK
  5
58
100
AcDbEntity
  8
0
100
AcDbBlockBegin
  2
servo_mount-0
 70
0
 10
0.0
 20
0.0
 30
0.0
  3
servo_mount-0
  1

  0
LINE
  5
59
100
AcDbEntity
100
AcDbLine
  8
guide
 62
256
370
-1
  6
ByLayer
 10
10.0
 20
10.0
 30
0.0
 11
60.7999999999999972
 21
22.6999999999999886
 31
0.0
  0
LINE
  5
5A
100
AcDbEntity
100
AcDbLine
  8
guide
 62
256
370
-1
  6
ByLayer
 10
10.0
 20
22.6999999999999886
 30
0.0
 11
60.7999999999999972
 21
10.0
 31
0.0
  0
LINE
  5
5B
100
AcDbEntity
100
AcDbLine
  8
guide
 62
256
370
-1
  6
ByLayer
 10
70.0
 20
3.6500000000000057
 30
0.0
 11
0.0
 21
3.6500000000000057
 31
0.0
  0
LINE
  5
5C
100
AcDbEntity
100
AcDbLine
  8
guide
 62
256
370
-1
  6
ByLayer
 10
70.0
 20
29.0500000000000114
 30
0.0
 11
0.0
 21
29.0500000000000114
 31
0.0
  0
LINE
  5
5D
100
AcDbEntity
100
AcDbLine
  8
guide
 62
256
370
-1
  6
ByLayer
 10
70.0
 20
35.0999999999999943
 30
0.0
 11
0.0
 21
35.0999999999999943
 31
0.0
  0
LINE
  5
5E
100
AcDbEntity
100
AcDbLine
  8
guide
 62
256
370
-1
  6
ByLayer
 10
14.7999999999999972
 20
29.0500000000000114
 30
0.0
 11
14.7999999999999972
 21
3.6500000000000057
 31
0.0
  0
LINE
  5
5F
100
AcDbEntity
100
AcDbLine
  8
guide
 62
256
370
-1
  6
ByLayer
 10
56.0
 20
29.0500000000000114
 30
0.0
 11
56.0
 21
3.6500000000000057
 31
0.0
  0
LINE
  5
60
100
AcDbEntity
100
AcDbLine
  8
guide
 62
256
370
-1
  6
ByLayer
 10
60.7999999999999972
 20
29.0500000000000114
 30
0.0
 11
60.7999999999999972
 21
10.0
 31
0.0
  0
ARC
  5
61
100
AcDbEntity
  8
0
 62
256
370
-1
  6
ByLayer
100
AcDbCircle
 10
63.7999999999999972
 20
22.6999999999999886
 30
0.0
 40
1.5
100
AcDbArc
 50
270.0
 51
90.0
  0
ARC
  5
62
100
AcDbEntity
  8
0
 62
256
370
-1
  6
ByLayer
100
AcDbCircle
 10
57.7999999999999972
 20
22.6999999999999886
 30
0.0
 40
1.5
100
AcDbArc
 50
90.0
 51
270.0
  0
LINE
  5
63
100
AcDbEntity
100
AcDbLine
  8
0
 62
256
370
-1
  6
ByLayer
 10
57.7999999999999972
 20
24.1999999999999886
 30
0.0
 11
63.7999999999999972
 21
24.1999999999999886
 31
0.0
  0
LINE
  5
64
100
AcDbEntity
100
AcDbLine
  8
0
 62
256
370
-1
  6
ByLayer
 10
57.7999999999999972
 20
21.1999999999999886
 30
0.0
 11
63.7999999999999972
 21
21.1999999999999886
 31
0.0
  0
ARC
  5
65
100
AcDbEntity
  8
0
 62
256
370
-1
  6
ByLayer
100
AcDbCircle
 10
63.7999999999999972
 20
10.0
 30
0.0
 40
1.5
100
AcDbArc
 50
270.0
 51
90.0
  0
ARC
  5
66
100
AcDbEntity
  8
0
 62
256
370
-1
  6
ByLayer
100
AcDbCircle
 10
57.7999999999999972
 20
10.0
 30
0.0
 40
1.5
100
AcDbArc
 50
90.0
 51
270.0
  0
LINE
  5
67
100
AcDbEntity
100
AcDbLine
  8
0
 62
256
370
-1
  6
ByLayer
 10
57.7999999999999972
 20
11.5
 30
0.0
 11
63.7999999999999972
 21
11.5
 31
0.0
  0
LINE
  5
68
100
AcDbEntity
100
AcDbLine
  8
0
 62
256
370
-1
  6
ByLayer
 10
57.7999999999999972
 20
8.5
 30
0.0
 11
63.7999999999999972
 21
8.5
 31
0.0
  0
ARC
  5
69
100
AcDbEntity
  8
0
 62
256
370
-1
  6
ByLayer
100
AcDbCircle
 10
13.0
 20
22.6999999999999886
 30
0.0
 40
1.5
100
AcDbArc
 50
270.0
 51
90.0
  0
ARC
  5
6A
100
AcDbEntity
  8
0
 62
256
370
-1
  6
ByLayer
100
AcDbCircle
 10
7.0
 20
22.6999999999999886
 30
0.0
 40
1.5
100
AcDbArc
 50
90.0
 51
270.0
  0
LINE
  5
6B
100
AcDbEntity
100
AcDbLine
  8
0
 62
256
370
-1
  6
ByLayer
 10
7.0
 20
24.1999999999999886
 30
0.0
 11
13.0
 21
24.1999999999999886
 31
0.0
  0
LINE
  5
6C
100
AcDbEntity
100
AcDbLine
  8
0
 62
256
370
-1
  6
ByLayer
 10
7.0
 20
21.1999999999999886
 30
0.0
 11
13.0
 21
21.1999999999999886
 31
0.0
  0
ARC
  5
6D
100
AcDbEntity
  8
0
 62
256
370
-1
  6
ByLayer
100
AcDbCircle
 10
13.0
 20
10.0
 30
0.0
 40
1.5
100
AcDbArc
 50
270.0
 51
90.0
  0
ARC
  5
6E
100
AcDbEntity
  8
0
 62
256
370
-1
  6
ByLayer
100
AcDbCircle
 10
7.0
 20
10.0
 30
0.0
 40
1.5
100
AcDbArc
 50
90.0
 51
270.0
  0
LINE
  5
6F
100
AcDbEntity
100
AcDbLine
  8
0
 62
256
370
-1
  6
ByLayer
 10
7.0
 20
11.5
 30
0.0
 11
13.0
 21
11.5
 31
0.0
  0
LINE
  5
70
100
AcDbEntity
100
AcDbLine
  8
0
 62
256
370
-1
  6
ByLayer
 10
7.0
 20
8.5
 30
0.0
 11
13.0
 21
8.5
 31
0.0
  0
LINE
  5
71
100
AcDbEntity
100
AcDbLine
  8
guide
 62
256
370
-1
  6
ByLayer
 10
46.8299999999999983
 20
45.0999999999999943
 30
0.0
 11
46.8299999999999983
 21
3.6500000000000057
 31
0.0
  0
CIRCLE
  5
72
100
AcDbEntity
100
AcDbCircle
  8
guide
 62
256
370
-1
  6
ByLayer
 10
81.8299999999999983
 20
45.0999999999999943
 30
0.0
 40
1.5
  0
LINE
  5
73
100
AcDbEntity
100
AcDbLine
  8
guide
 62
256
370
-1
  6
ByLayer
 10
81.8299999999999983
 20
45.0999999999999943
 30
0.0
 11
46.8299999999999983
 21
45.0999999999999943
 31
0.0
  0
ENDBLK
  5
74
100
AcDbEntity
  8
0
100
AcDbBlockEnd
  0
BLOCK
  5
75
100
AcDbEntity
  8
0
100
AcDbBlockBegin
  2
servo_mount-1
 70
0
 10
0.0
 20
0.0
 30
0.0
  3
servo_mount-1
  1

  0
LINE
  5
76
100
AcDbEntity
100
AcDbLine
  8
guide
 62
256
370
-1
  6
ByLayer
 10
10.0
 20
10.0
 30
0.0
 11
60.7999999999999972
 21
22.6999999999999886
 31
0.0
  0
LINE
  5
77
100
AcDbEntity
100
AcDbLine
  8
guide
 62
256
370
-1
  6
ByLayer
 10
10.0
 20
22.6999999999999886
 30
0.0
 11
60.7999999999999972
 21
10.0
 31
0.0
  0
LINE
  5
78
100
AcDbEntity
100
AcDbLine
  8
guide
 62
256
370
-1
  6
ByLayer
 10
70.0
 20
3.6500000000000057
 30
0.0
 11
0.0
 21
3.6500000000000057
 31
0.0
  0
LINE
  5
79
100
AcDbEntity
100
AcDbLine
  8
guide
 62
256
370
-1
  6
ByLayer
 10
70.0
 20
29.0500000000000114
 30
0.0
 11
0.0
 21
29.0500000000000114
 31
0.0
  0
LINE
  5
7A
100
AcDbEntity
100
AcDbLine
  8
guide
 62
256
370
-1
  6
ByLayer
 10
70.0
 20
35.0999999999999943
 30
0.0
 11
0.0
 21
35.0999999999999943
 31
0.0
  0
LINE
  5
7B
100
AcDbEntity
100
AcDbLine
  8
guide
 62
256
370
-1
  6
ByLayer
 10
14.7999999999999972
 20
29.0500000000000114
 30
0.0
 11
14.7999999999999972
 21
3.6500000000000057
 31
0.0
  0
LINE
  5
7C
100
AcDbEntity
100
AcDbLine
  8
guide
 62
256
370
-1
  6
ByLayer
 10
56.0
 20
29.0500000000000114
 30
0.0
 11
56.0
 21
3.6500000000000057
 31
0.0
  0
LINE
  5
7D
100
AcDbEntity
100
AcDbLine
  8
guide
 62
256
370
-1
  6
ByLayer
 10
60.7999999999999972
 20
29.0500000000000114
 30
0.0
 11
60.7999999999999972
 21
10.0
 31
0.0
  0
ARC
  5
7E
100
AcDbEntity
  8
0
 62
256
370
-1
  6
ByLayer
100
AcDbCircle
 10
63.7999999999999972
 20
22.6999999999999886
 30
0.0
 40
1.5
100
AcDbArc
 50
270.0
 51
90.0
  0
ARC
  5
7F
100
AcDbEntity
  8
0
 62
256
370
-1
  6
ByLayer
100
AcDbCircle
 10
57.7999999999999972
 20
22.6999999999999886
 30
0.0
 40
1.5
100
AcDbArc
 50
90.0
 51
270.0
  0
LINE
  5
80
100
AcDbEntity
100
AcDbLine
  8
0
 62
256
370
-1
  6
ByLayer
 10
57.7999999999999972
 20
24.1999999999999886
 30
0.0
 11
63.7999999999999972
 21
24.1999999999999886
 31
0.0
  0
LINE
  5
81
100
AcDbEntity
100
AcDbLine
  8
0
 62
256
370
-1
  6
ByLayer
 10
57.7999999999999972
 20
21.1999999999999886
 30
0.0
 11
63.7999999999999972
 21
21.1999999999999886
 31
0.0
  0
ARC
  5
82
100
AcDbEntity
  8
0
 62
256
370
-1
  6
ByLayer
100
AcDbCircle
 10
63.7999999999999972
 20
10.0
 30
0.0
 40
1.5
100
AcDbArc
 50
270.0
 51
90.0
  0
ARC
  5
83
100
AcDbEntity
  8
0
 62
256
370
-1
  6
ByLayer
100
AcDbCircle
 10
57.7999999999999972
 20
10.0
 30
0.0
 40
1.5
100
AcDbArc
 50
90.0
 51
270.0
  0
LINE
  5
84
100
AcDbEntity
100
AcDbLine
  8
0
 62
256
370
-1
  6
ByLayer
 10
57.7999999999999972
 20
11.5
 30
0.0
 11
63.7999999999999972
 21
11.5
 31
0.0
  0
LINE
  5
85
100
AcDbEntity
100
AcDbLine
  8
0
 62
256
370
-1
  6
ByLayer
 10
57.7999999999999972
 20
8.5
 30
0.0
 11
63.7999999999999972
 21
8.5
 31
0.0
  0
ARC
  5
86
100
AcDbEntity
  8
0
 62
256
370
-1
  6
ByLayer
100
AcDbCircle
 10
13.0
 20
22.6999999999999886
 30
0.0
 40
1.5
100
AcDbArc
 50
270.0
 51
90.0
  0
ARC
  5
87
100
AcDbEntity
  8
0
 62
256
370
-1
  6
ByLayer
100
AcDbCircle
 10
7.0
 20
22.6999999999999886
 30
0.0
 40
1.5
100
AcDbArc
 50
90.0
 51
270.0
  0
LINE
  5
88
100
AcDbEntity
100
AcDbLine
  8
0
 62
256
370
-1
  6
ByLayer
 10
7.0
 20
24.1999999999999886
 30
0.0
 11
13.0
 21
24.1999999999999886
 31
0.0
  0
LINE
  5
89
100
AcDbEntity
100
AcDbLine
  8
0
 62
256
370
-1
  6
ByLayer
 10
7.0
 20
21.1999999999999886
 30
0.0
 11
13.0
 21
21.1999999999999886
 31
0.0
  0
ARC
  5
8A
100
AcDbEntity
  8
0
 62
256
370
-1
  6
ByLayer
100
AcDbCircle
 10
13.0
 20
10.0
 30
0.0
 40
1.5
100
AcDbArc
 50
270.0
 51
90.0
  0
ARC
  5
8B
100
AcDbEntity
  8
0
 62
256
370
-1
  6
ByLayer
100
AcDbCircle
 10
7.0
 20
10.0
 30
0.0
 40
1.5
100
AcDbArc
 50
90.0
 51
270.0
  0
LINE
  5
8C
100
AcDbEntity
100
AcDbLine
  8
0
 62
256
370
-1
  6
ByLayer
 10
7.0
 20
11.5
 30
0.0
 11
13.0
 21
11.5
 31
0.0
  0
LINE
  5
8D
100
AcDbEntity
100
AcDbLine
  8
0
 62
256
370
-1
  6
ByLayer
 10
7.0
 20
8.5
 30
0.0
 11
13.0
 21
8.5
 31
0.0
  0
LINE
  5
8E
100
AcDbEntity
100
AcDbLine
  8
guide
 62
256
370
-1
  6
ByLayer
 10
46.8299999999999983
 20
45.0999999999999943
 30
0.0
 11
46.8299999999999983
 21
3.6500000000000057
 31
0.0
  0
CIRCLE
  5
8F
100
AcDbEntity
100
AcDbCircle
  8
guide
 62
256
370
-1
  6
ByLayer
 10
81.8299999999999983
 20
45.0999999999999943
 30
0.0
 40
1.5
  0
LINE
  5
90
100
AcDbEntity
100
AcDbLine
  8
guide
 62
256
370
-1
  6
ByLayer
 10
81.8299999999999983
 20
45.0999999999999943
 30
0.0
 11
46.8299999999999983
 21
45.0999999999999943
 31
0.0
  0
ENDBLK
  5
91
100
AcDbEntity
  8
0
100
AcDbBlockEnd
  0
BLOCK
  5
92
100
AcDbEntity
  8
0
100
AcDbBlockBegin
  2
servo_mount-2
 70
0
 10
0.0
 20
0.0
 30
0.0
  3
servo_mount-2
  1

  0
LINE
  5
93
100
AcDbEntity
100
AcDbLine
  8
guide
 62
256
370
-1
  6
ByLayer
 10
10.0
 20
10.0
 30
0.0
 11
60.7999999999999972
 21
22.6999999999999886
 31
0.0
  0
LINE
  5
94
100
AcDbEntity
100
AcDbLine
  8
guide
 62
256
370
-1
  6
ByLayer
 10
10.0
 20
22.6999999999999886
 30
0.0
 11
60.7999999999999972
 21
10.0
 31
0.0
  0
LINE
  5
95
100
AcDbEntity
100
AcDbLine
  8
guide
 62
256
370
-1
  6
ByLayer
 10
70.0
 20
3.6499999999999773
 30
0.0
 11
0.0
 21
3.6499999999999773
 31
0.0
  0
LINE
  5
96
100
AcDbEntity
100
AcDbLine
  8
guide
 62
256
370
-1
  6
ByLayer
 10
70.0
 20
29.0500000000000114
 30
0.0
 11
0.0
 21
29.0500000000000114
 31
0.0
  0
LINE
  5
97
100
AcDbEntity
100
AcDbLine
  8
guide
 62
256
370
-1
  6
ByLayer
 10
70.0
 20
35.1000000000000227
 30
0.0
 11
0.0
 21
35.1000000000000227
 31
0.0
  0
LINE
  5
98
100
AcDbEntity
100
AcDbLine
  8
guide
 62
256
370
-1
  6
ByLayer
 10
14.7999999999999972
 20
29.0500000000000114
 30
0.0
 11
14.7999999999999972
 21
3.6499999999999773
 31
0.0
  0
LINE
  5
99
100
AcDbEntity
100
AcDbLine
  8
guide
 62
256
370
-1
  6
ByLayer
 10
56.0
 20
29.0500000000000114
 30
0.0
 11
56.0
 21
3.6499999999999773
 31
0.0
  0
LINE
  5
9A
100
AcDbEntity
100
AcDbLine
  8
guide
 62
256
370
-1
  6
ByLayer
 10
60.7999999999999972
 20
29.0500000000000114
 30
0.0
 11
60.7999999999999972
 21
10.0
 31
0.0
  0
ARC
  5
9B
100
AcDbEntity
  8
0
 62
256
370
-1
  6
ByLayer
100
AcDbCircle
 10
63.7999999999999972
 20
22.6999999999999886
 30
0.0
 40
1.5
100
AcDbArc
 50
270.0
 51
90.0
  0
ARC
  5
9C
100
AcDbEntity
  8
0
 62
256
370
-1
  6
ByLayer
100
AcDbCircle
 10
57.7999999999999972
 20
22.6999999999999886
 30
0.0
 40
1.5
100
AcDbArc
 50
90.0
 51
270.0
  0
LINE
  5
9D
100
AcDbEntity
100
AcDbLine
  8
0
 62
256
370
-1
  6
ByLayer
 10
57.7999999999999972
 20
24.1999999999999886
 30
0.0
 11
63.7999999999999972
 21
24.1999999999999886
 31
0.0
  0
LINE
  5
9E
100
AcDbEntity
100
AcDbLine
  8
0
 62
256
370
-1
  6
ByLayer
 10
57.7999999999999972
 20
21.1999999999999886
 30
0.0
 11
63.7999999999999972
 21
21.1999999999999886
 31
0.0
  0
ARC
  5
9F
100
AcDbEntity
  8
0
 62
256
370
-1
  6
ByLayer
100
AcDbCircle
 10
63.7999999999999972
 20
10.0
 30
0.0
 40
1.5
100
AcDbArc
 50
270.0
 51
90.0
  0
ARC
  5
A0
100
AcDbEntity
  8
0
 62
256
370
-1
  6
ByLayer
100
AcDbCircle
 10
57.7999999999999972
 20
10.0
 30
0.0
 40
1.5
100
AcDbArc
 50
90.0
 51
270.0
  0
LINE
  5
A1
100
AcDbEntity
100
AcDbLine
  8
0
 62
256
370
-1
  6
ByLayer
 10
57.7999999999999972
 20
11.5
 30
0.0
 11
63.7999999999999972
 21
11.5
 31
0.0
  0
LINE
  5
A2
100
AcDbEntity
100
AcDbLine
  8
0
 62
256
370
-1
  6
ByLayer
 10
57.7999999999999972
 20
8.5
 30
0.0
 11
63.7999999999999972
 21
8.5
 31
0.0
  0
ARC
  5
A3
100
AcDbEntity
  8
0
 62
256
370
-1
  6
ByLayer
100
AcDbCircle
 10
13.0
 20
22.6999999999999886
 30
0.0
 40
1.5
100
AcDbArc
 50
270.0
 51
90.0
  0
ARC
  5
A4
100
AcDbEntity
  8
0
 62
256
370
-1
  6
ByLayer
100
AcDbCircle
 10
7.0
 20
22.6999999999999886
 30
0.0
 40
1.5
100
AcDbArc
 50
90.0
 51
270.0
  0
LINE
  5
A5
100
AcDbEntity
100
AcDbLine
  8
0
 62
256
370
-1
  6
ByLayer
 10
7.0
 20
24.1999999999999886
 30
0.0
 11
13.0
 21
24.1999999999999886
 31
0.0
  0
LINE
  5
A6
100
AcDbEntity
100
AcDbLine
  8
0
 62
256
370
-1
  6
ByLayer
 10
7.0
 20
21.1999999999999886
 30
0.0
 11
13.0
 21
21.1999999999999886
 31
0.0
  0
ARC
  5
A7
100
AcDbEntity
  8
0
 62
256
370
-1
  6
ByLayer
100
AcDbCircle
 10
13.0
 20
10.0
 30
0.0
 40
1.5
100
AcDbArc
 50
270.0
 51
90.0
  0
ARC
  5
A8
100
AcDbEntity
  8
0
 62
256
370
-1
  6
ByLayer
100
AcDbCircle
 10
7.0
 20
10.0
 30
0.0
 40
1.5
100
AcDbArc
 50
90.0
 51
270.0
  0
LINE
  5
A9
100
AcDbEntity
100
AcDbLine
  8
0
 62
256
370
-1
  6
ByLayer
 10
7.0
 20
11.5
 30
0.0
 11
13.0
 21
11.5
 31
0.0
  0
LINE
  5
AA
100
AcDbEntity
100
AcDbLine
  8
0
 62
256
370
-1
  6
ByLayer
 10
7.0
 20
8.5
 30
0.0
 11
13.0
 21
8.5
 31
0.0
  0
LINE
  5
AB
100
AcDbEntity
100
AcDbLine
  8
guide
 62
256
370
-1
  6
ByLayer
 10
46.8299999999999983
 20
45.0999999999999943
 30
0.0
 11
46.8299999999999983
 21
3.6499999999999773
 31
0.0
  0
CIRCLE
  5
AC
100
AcDbEntity
100
AcDbCircle
  8
guide
 62
256
370
-1
  6
ByLayer
 10
81.8299999999999983
 20
45.0999999999999943
 30
0.0
 40
1.5
  0
LINE
  5
AD
100
AcDbEntity
100
AcDbLine
  8
guide
 62
256
370
-1
  6
ByLayer
 10
81.8299999999999983
 20
45.0999999999999943
 30
0.0
 11
46.8299999999999983
 21
45.0999999999999943
 31
0.0
  0
ENDBLK
  5
AE
100
AcDbEntity
  8
0
100
AcDbBlockEnd
  0
ENDSEC
  0
SECTION
  2
ENTITIES
  0
LINE
  5
AF
100
AcDbEntity
100
AcDbLine
  8
guide
 62
256
370
-1
  6
ByLayer
 10
110.0
 20
35.0
 30
0.0
 11
110.0
 21
35.0
 31
0.0
  0
LINE
  5
B0
100
AcDbEntity
100
AcDbLine
  8
guide
 62
256
370
-1
  6
ByLayer
 10
75.0
 20
55.75
 30
0.0
 11
105.0
 21
55.75
 31
0.0
  0
LINE
  5
B1
100
AcDbEntity
100
AcDbLine
  8
guide
 62
256
370
-1
  6
ByLayer
 10
75.0
 20
15.0
 30
0.0
 11
45.0
 21
15.0
 31
0.0
  0
LINE
  5
B2
100
AcDbEntity
100
AcDbLine
  8
guide
 62
256
370
-1
  6
ByLayer
 10
15.0
 20
55.75
 30
0.0
 11
45.0
 21
55.75
 31
0.0
  0
LINE
  5
B3
100
AcDbEntity
100
AcDbLine
  8
guide
 62
256
370
-1
  6
ByLayer
 10
30.0
 20
55.75
 30
0.0
 11
30.0
 21
10.0
 31
0.0
  0
LINE
  5
B4
100
AcDbEntity
100
AcDbLine
  8
guide
 62
256
370
-1
  6
ByLayer
 10
60.0
 20
15.0
 30
0.0
 11
60.0
 21
60.0
 31
0.0
  0
LINE
  5
B5
100
AcDbEntity
100
AcDbLine
  8
guide
 62
256
370
-1
  6
ByLayer
 10
90.0
 20
55.75
 30
0.0
 11
90.0
 21
10.0
 31
0.0
  0
CIRCLE
  5
B6
100
AcDbEntity
100
AcDbCircle
  8
0
 62
256
370
-1
  6
ByLayer
 10
30.0
 20
32.0
 30
0.0
 40
2.0
  0
CIRCLE
  5
B7
100
AcDbEntity
100
AcDbCircle
  8
0
 62
256
370
-1
  6
ByLayer
 10
60.0
 20
35.0
 30
0.0
 40
2.0
  0
CIRCLE
  5
B8
100
AcDbEntity
100
AcDbCircle
  8
0
 62
256
370
-1
  6
ByLayer
 10
90.0
 20
38.0
 30
0.0
 40
2.0
  0
LINE
  5
B9
100
AcDbEntity
100
AcDbLine
  8
0
 62
256
370
-1
  6
ByLayer
 10
110.0
 20
70.0
 30
0.0
 11
110.0
 21
120.0
 31
0.0
  0
LINE
  5
BA
100
AcDbEntity
100
AcDbLine
  8
0
 62
256
370
-1
  6
ByLayer
 10
10.0
 20
120.0
 30
0.0
 11
10.0
 21
70.0
 31
0.0
  0
LINE
  5
BB
100
AcDbEntity
100
AcDbLine
  8
guide
 62
256
370
-1
  6
ByLayer
 10
110.0
 20
95.0
 30
0.0
 11
110.0
 21
95.0
 31
0.0
  0
LINE
  5
BC
100
AcDbEntity
100
AcDbLine
  8
guide
 62
256
370
-1
  6
ByLayer
 10
75.0
 20
115.75
 30
0.0
 11
105.0
 21
115.75
 31
0.0
  0
LINE
  5
BD
100
AcDbEntity
100
AcDbLine
  8
guide
 62
256
370
-1
  6
ByLayer
 10
75.0
 20
75.0
 30
0.0
 11
45.0
 21
75.0
 31
0.0
  0
LINE
  5
BE
100
AcDbEntity
100
AcDbLine
  8
guide
 62
256
370
-1
  6
ByLayer
 10
15.0
 20
115.75
 30
0.0
 11
45.0
 21
115.75
 31
0.0
  0
CIRCLE
  5
BF
100
AcDbEntity
100
AcDbCircle
  8
0
 62
256
370
-1
  6
ByLayer
 10
30.0
 20
92.0
 30
0.0
 40
0.8
  0
CIRCLE
  5
C0
100
AcDbEntity
100
AcDbCircle
  8
0
 62
256
370
-1
  6
ByLayer
 10
60.0
 20
95.0
 30
0.0
 40
0.8
  0
CIRCLE
  5
C1
100
AcDbEntity
100
AcDbCircle
  8
0
 62
256
370
-1
  6
ByLayer
 10
90.0
 20
98.0
 30
0.0
 40
0.8
  0
DIMENSION
  5
C2
100
AcDbEntity
  8
dimension
 62
256
370
-1
  6
ByLayer
100
AcDbDimension
 10
110.0
 20
0.0
 30
0.0
 11
60.0
 21
1.875
 31
0.0
 70
0
 71
5
 72
1
 41
1.0
 42
0.0
  1

  3
Standard
100
AcDbAlignedDimension
 13
10.0
 23
10.0
 33
0.0
 14
110.0
 24
10.0
 34
0.0
 50
0.0
100
AcDbRotatedDimension
  0
DIMENSION
  5
C3
100
AcDbEntity
  8
dimension
 62
256
370
-1
  6
ByLayer
100
AcDbDimension
 10
60.0
 20
40.0
 30
0.0
 11
45.0
 21
41.875
 31
0.0
 70
0
 71
5
 72
1
 41
1.0
 42
0.0
  1

  3
Standard
100
AcDbAlignedDimension
 13
30.0
 23
32.0
 33
0.0
 14
60.0
 24
35.0
 34
0.0
 50
0.0
100
AcDbRotatedDimension
  0
DIMENSION
  5
C4
100
AcDbEntity
  8
dimension
 62
256
370
-1
  6
ByLayer
100
AcDbDimension
 10
90.0
 20
30.0
 30
0.0
 11
75.0
 21
31.875
 31
0.0
 70
0
 71
5
 72
1
 41
1.0
 42
0.0
  1

  3
Standard
100
AcDbAlignedDimension
 13
60.0
 23
35.0
 33
0.0
 14
90.0
 24
38.0
 34
0.0
 50
0.0
100
AcDbRotatedDimension
  0
LINE
  5
C5
100
AcDbEntity
100
AcDbLine
  8
guide
 62
256
370
-1
  6
ByLayer
 10
10.0
 20
98.0
 30
0.0
 11
222.6513567849856372
 21
98.0
 31
0.0
  0
LINE
  5
C6
100
AcDbEntity
100
AcDbLine
  8
guide
 62
256
370
-1
  6
ByLayer
 10
10.0
 20
92.0
 30
0.0
 11
222.6513567849856372
 21
92.0
 31
0.0
  0
LINE
  5
C7
100
AcDbEntity
100
AcDbLine
  8
guide
 62
256
370
-1
  6
ByLayer
 10
10.0
 20
95.0
 30
0.0
 11
222.6513567849856372
 21
95.0
 31
0.0
  0
LINE
  5
C8
100
AcDbEntity
100
AcDbLine
  8
guide
 62
256
370
-1
  6
ByLayer
 10
10.0
 20
100.5
 30
0.0
 11
222.6513567849856372
 21
100.5
 31
0.0
  0
LINE
  5
C9
100
AcDbEntity
100
AcDbLine
  8
guide
 62
256
370
-1
  6
ByLayer
 10
110.0
 20
130.0
 30
0.0
 11
110.0
 21
180.0
 31
0.0
  0
LINE
  5
CA
100
AcDbEntity
100
AcDbLine
  8
guide
 62
256
370
-1
  6
ByLayer
 10
110.0
 20
180.0
 30
0.0
 11
10.0
 21
180.0
 31
0.0
  0
LINE
  5
CB
100
AcDbEntity
100
AcDbLine
  8
guide
 62
256
370
-1
  6
ByLayer
 10
10.0
 20
180.0
 30
0.0
 11
10.0
 21
130.0
 31
0.0
  0
LINE
  5
CC
100
AcDbEntity
100
AcDbLine
  8
guide
 62
256
370
-1
  6
ByLayer
 10
10.0
 20
130.0
 30
0.0
 11
110.0
 21
130.0
 31
0.0
  0
LINE
  5
CD
100
AcDbEntity
100
AcDbLine
  8
guide
 62
256
370
-1
  6
ByLayer
 10
10.0
 20
140.0
 30
0.0
 11
110.0
 21
140.0
 31
0.0
  0
LINE
  5
CE
100
AcDbEntity
100
AcDbLine
  8
guide
 62
256
370
-1
  6
ByLayer
 10
10.0
 20
147.0
 30
0.0
 11
110.0
 21
147.0
 31
0.0
  0
LINE
  5
CF
100
AcDbEntity
100
AcDbLine
  8
guide
 62
256
370
-1
  6
ByLayer
 10
10.0
 20
157.0
 30
0.0
 11
110.0
 21
157.0
 31
0.0
  0
LINE
  5
D0
100
AcDbEntity
100
AcDbLine
  8
guide
 62
256
370
-1
  6
ByLayer
 10
10.0
 20
162.0
 30
0.0
 11
110.0
 21
162.0
 31
0.0
  0
LINE
  5
D1
100
AcDbEntity
100
AcDbLine
  8
guide
 62
256
370
-1
  6
ByLayer
 10
30.0
 20
162.0
 30
0.0
 11
30.0
 21
4.5
 31
0.0
  0
LINE
  5
D2
100
AcDbEntity
100
AcDbLine
  8
guide
 62
256
370
-1
  6
ByLayer
 10
60.0
 20
4.5
 30
0.0
 11
60.0
 21
162.0
 31
0.0
  0
LINE
  5
D3
100
AcDbEntity
100
AcDbLine
  8
guide
 62
256
370
-1
  6
ByLayer
 10
90.0
 20
162.0
 30
0.0
 11
90.0
 21
4.5
 31
0.0
  0
LINE
  5
D4
100
AcDbEntity
100
AcDbLine
  8
guide
 62
256
370
-1
  6
ByLayer
 10
20.0
 20
162.0
 30
0.0
 11
20.0
 21
4.5
 31
0.0
  0
LINE
  5
D5
100
AcDbEntity
100
AcDbLine
  8
guide
 62
256
370
-1
  6
ByLayer
 10
50.0
 20
4.5
 30
0.0
 11
50.0
 21
162.0
 31
0.0
  0
LINE
  5
D6
100
AcDbEntity
100
AcDbLine
  8
guide
 62
256
370
-1
  6
ByLayer
 10
80.0
 20
162.0
 30
0.0
 11
80.0
 21
4.5
 31
0.0
  0
LINE
  5
D7
100
AcDbEntity
100
AcDbLine
  8
guide
 62
256
370
-1
  6
ByLayer
 10
40.0
 20
162.0
 30
0.0
 11
40.0
 21
4.5
 31
0.0
  0
LINE
  5
D8
100
AcDbEntity
100
AcDbLine
  8
guide
 62
256
370
-1
  6
ByLayer
 10
70.0
 20
4.5
 30
0.0
 11
70.0
 21
162.0
 31
0.0
  0
LINE
  5
D9
100
AcDbEntity
100
AcDbLine
  8
guide
 62
256
370
-1
  6
ByLayer
 10
100.0
 20
162.0
 30
0.0
 11
100.0
 21
4.5
 31
0.0
  0
LINE
  5
DA
100
AcDbEntity
100
AcDbLine
  8
0
 62
256
370
-1
  6
ByLayer
 10
110.0
 20
130.0
 30
0.0
 11
10.0
 21
130.0
 31
0.0
  0
LINE
  5
DB
100
AcDbEntity
100
AcDbLine
  8
0
 62
256
370
-1
  6
ByLayer
 10
80.0
 20
140.0
 30
0.0
 11
100.0
 21
140.0
 31
0.0
  0
LINE
  5
DC
100
AcDbEntity
100
AcDbLine
  8
0
 62
256
370
-1
  6
ByLayer
 10
50.0
 20
140.0
 30
0.0
 11
70.0
 21
140.0
 31
0.0
  0
LINE
  5
DD
100
AcDbEntity
100
AcDbLine
  8
0
 62
256
370
-1
  6
ByLayer
 10
20.0
 20
140.0
 30
0.0
 11
40.0
 21
140.0
 31
0.0
  0
LINE
  5
DE
100
AcDbEntity
100
AcDbLine
  8
0
 62
256
370
-1
  6
ByLayer
 10
220.0
 20
130.0
 30
0.0
 11
120.0
 21
130.0
 31
0.0
  0
LINE
  5
DF
100
AcDbEntity
100
AcDbLine
  8
0
 62
256
370
-1
  6
ByLayer
 10
190.0
 20
140.0
 30
0.0
 11
210.0
 21
140.0
 31
0.0
  0
LINE
  5
E0
100
AcDbEntity
100
AcDbLine
  8
0
 62
256
370
-1
  6
ByLayer
 10
160.0
 20
140.0
 30
0.0
 11
180.0
 21
140.0
 31
0.0
  0
LINE
  5
E1
100
AcDbEntity
100
AcDbLine
  8
0
 62
256
370
-1
  6
ByLayer
 10
130.0
 20
140.0
 30
0.0
 11
150.0
 21
140.0
 31
0.0
  0
LINE
  5
E2
100
AcDbEntity
100
AcDbLine
  8
0
 62
256
370
-1
  6
ByLayer
 10
220.0
 20
70.0
 30
0.0
 11
220.0
 21
120.0
 31
0.0
  0
LINE
  5
E3
100
AcDbEntity
100
AcDbLine
  8
0
 62
256
370
-1
  6
ByLayer
 10
120.0
 20
120.0
 30
0.0
 11
120.0
 21
70.0
 31
0.0
  0
LINE
  5
E4
100
AcDbEntity
100
AcDbLine
  8
0
 62
256
370
-1
  6
ByLayer
 10
130.0
 20
100.5
 30
0.0
 11
150.0
 21
100.5
 31
0.0
  0
LINE
  5
E5
100
AcDbEntity
100
AcDbLine
  8
0
 62
256
370
-1
  6
ByLayer
 10
150.0
 20
100.5
 30
0.0
 11
150.0
 21
89.5
 31
0.0
  0
LINE
  5
E6
100
AcDbEntity
100
AcDbLine
  8
0
 62
256
370
-1
  6
ByLayer
 10
150.0
 20
89.5
 30
0.0
 11
130.0
 21
89.5
 31
0.0
  0
LINE
  5
E7
100
AcDbEntity
100
AcDbLine
  8
0
 62
256
370
-1
  6
ByLayer
 10
130.0
 20
89.5
 30
0.0
 11
130.0
 21
100.5
 31
0.0
  0
LINE
  5
E8
100
AcDbEntity
100
AcDbLine
  8
0
 62
256
370
-1
  6
ByLayer
 10
160.0
 20
100.5
 30
0.0
 11
180.0
 21
100.5
 31
0.0
  0
LINE
  5
E9
100
AcDbEntity
100
AcDbLine
  8
0
 62
256
370
-1
  6
ByLayer
 10
180.0
 20
100.5
 30
0.0
 11
180.0
 21
89.5
 31
0.0
  0
LINE
  5
EA
100
AcDbEntity
100
AcDbLine
  8
0
 62
256
370
-1
  6
ByLayer
 10
180.0
 20
89.5
 30
0.0
 11
160.0
 21
89.5
 31
0.0
  0
LINE
  5
EB
100
AcDbEntity
100
AcDbLine
  8
0
 62
256
370
-1
  6
ByLayer
 10
160.0
 20
89.5
 30
0.0
 11
160.0
 21
100.5
 31
0.0
  0
LINE
  5
EC
100
AcDbEntity
100
AcDbLine
  8
0
 62
256
370
-1
  6
ByLayer
 10
190.0
 20
100.5
 30
0.0
 11
210.0
 21
100.5
 31
0.0
  0
LINE
  5
ED
100
AcDbEntity
100
AcDbLine
  8
0
 62
256
370
-1
  6
ByLayer
 10
210.0
 20
100.5
 30
0.0
 11
210.0
 21
89.5
 31
0.0
  0
LINE
  5
EE
100
AcDbEntity
100
AcDbLine
  8
0
 62
256
370
-1
  6
ByLayer
 10
210.0
 20
89.5
 30
0.0
 11
190.0
 21
89.5
 31
0.0
  0
LINE
  5
EF
100
AcDbEntity
100
AcDbLine
  8
0
 62
256
370
-1
  6
ByLayer
 10
190.0
 20
89.5
 30
0.0
 11
190.0
 21
100.5
 31
0.0
  0
LINE
  5
F0
100
AcDbEntity
100
AcDbLine
  8
guide
 62
256
370
-1
  6
ByLayer
 10
10.0
 20
0.0
 30
0.0
 11
10.0
 21
120.0
 31
0.0
  0
LINE
  5
F1
100
AcDbEntity
100
AcDbLine
  8
guide
 62
256
370
-1
  6
ByLayer
 10
10.0
 20
120.0
 30
0.0
 11
110.0
 21
120.0
 31
0.0
  0
LINE
  5
F2
100
AcDbEntity
100
AcDbLine
  8
guide
 62
256
370
-1
  6
ByLayer
 10
10.0
 20
125.0
 30
0.0
 11
110.0
 21
125.0
 31
0.0
  0
LINE
  5
F3
100
AcDbEntity
100
AcDbLine
  8
0
 62
256
370
-1
  6
ByLayer
 10
10.0
 20
120.0
 30
0.0
 11
20.0
 21
120.0
 31
0.0
  0
LINE
  5
F4
100
AcDbEntity
100
AcDbLine
  8
0
 62
256
370
-1
  6
ByLayer
 10
20.0
 20
120.0
 30
0.0
 11
20.0
 21
125.0
 31
0.0
  0
LINE
  5
F5
100
AcDbEntity
100
AcDbLine
  8
0
 62
256
370
-1
  6
ByLayer
 10
20.0
 20
125.0
 30
0.0
 11
40.0
 21
125.0
 31
0.0
  0
LINE
  5
F6
100
AcDbEntity
100
AcDbLine
  8
0
 62
256
370
-1
  6
ByLayer
 10
40.0
 20
125.0
 30
0.0
 11
40.0
 21
120.0
 31
0.0
  0
LINE
  5
F7
100
AcDbEntity
100
AcDbLine
  8
0
 62
256
370
-1
  6
ByLayer
 10
40.0
 20
120.0
 30
0.0
 11
50.0
 21
120.0
 31
0.0
  0
LINE
  5
F8
100
AcDbEntity
100
AcDbLine
  8
0
 62
256
370
-1
  6
ByLayer
 10
50.0
 20
120.0
 30
0.0
 11
50.0
 21
125.0
 31
0.0
  0
LINE
  5
F9
100
AcDbEntity
100
AcDbLine
  8
0
 62
256
370
-1
  6
ByLayer
 10
50.0
 20
125.0
 30
0.0
 11
70.0
 21
125.0
 31
0.0
  0
LINE
  5
FA
100
AcDbEntity
100
AcDbLine
  8
0
 62
256
370
-1
  6
ByLayer
 10
70.0
 20
125.0
 30
0.0
 11
70.0
 21
120.0
 31
0.0
  0
LINE
  5
FB
100
AcDbEntity
100
AcDbLine
  8
0
 62
256
370
-1
  6
ByLayer
 10
70.0
 20
120.0
 30
0.0
 11
80.0
 21
120.0
 31
0.0
  0
LINE
  5
FC
100
AcDbEntity
100
AcDbLine
  8
0
 62
256
370
-1
  6
ByLayer
 10
80.0
 20
120.0
 30
0.0
 11
80.0
 21
125.0
 31
0.0
  0
LINE
  5
FD
100
AcDbEntity
100
AcDbLine
  8
0
 62
256
370
-1
  6
ByLayer
 10
80.0
 20
125.0
 30
0.0
 11
100.0
 21
125.0
 31
0.0
  0
LINE
  5
FE
100
AcDbEntity
100
AcDbLine
  8
0
 62
256
370
-1
  6
ByLayer
 10
100.0
 20
125.0
 30
0.0
 11
100.0
 21
120.0
 31
0.0
  0
LINE
  5
FF
100
AcDbEntity
100
AcDbLine
  8
0
 62
256
370
-1
  6
ByLayer
 10
100.0
 20
120.0
 30
0.0
 11
110.0
 21
120.0
 31
0.0
  0
LINE
  5
100
100
AcDbEntity
100
AcDbLine
  8
0
 62
256
370
-1
  6
ByLayer
 10
110.0
 20
69.9999999999999858
 30
0.0
 11
100.0
 21
70.0
 31
0.0
  0
LINE
  5
101
100
AcDbEntity
100
AcDbLine
  8
0
 62
256
370
-1
  6
ByLayer
 10
100.0
 20
70.0
 30
0.0
 11
100.0
 21
65.0
 31
0.0
  0
LINE
  5
102
100
AcDbEntity
100
AcDbLine
  8
0
 62
256
370
-1
  6
ByLayer
 10
100.0
 20
65.0
 30
0.0
 11
79.9999999999999716
 21
64.9999999999999858
 31
0.0
  0
LINE
  5
103
100
AcDbEntity
100
AcDbLine
  8
0
 62
256
370
-1
  6
ByLayer
 10
79.9999999999999716
 20
64.9999999999999858
 30
0.0
 11
79.9999999999999858
 21
70.0
 31
0.0
  0
LINE
  5
104
100
AcDbEntity
100
AcDbLine
  8
0
 62
256
370
-1
  6
ByLayer
 10
79.9999999999999858
 20
70.0
 30
0.0
 11
70.0
 21
70.0
 31
0.0
  0
LINE
  5
105
100
AcDbEntity
100
AcDbLine
  8
0
 62
256
370
-1
  6
ByLayer
 10
70.0
 20
70.0
 30
0.0
 11
70.0
 21
65.0
 31
0.0
  0
LINE
  5
106
100
AcDbEntity
100
AcDbLine
  8
0
 62
256
370
-1
  6
ByLayer
 10
70.0
 20
65.0
 30
0.0
 11
50.0
 21
65.0
 31
0.0
  0
LINE
  5
107
100
AcDbEntity
100
AcDbLine
  8
0
 62
256
370
-1
  6
ByLayer
 10
50.0
 20
65.0
 30
0.0
 11
50.0
 21
70.0
 31
0.0
  0
LINE
  5
108
100
AcDbEntity
100
AcDbLine
  8
0
 62
256
370
-1
  6
ByLayer
 10
50.0
 20
70.0
 30
0.0
 11
40.0
 21
70.0
 31
0.0
  0
LINE
  5
109
100
AcDbEntity
100
AcDbLine
  8
0
 62
256
370
-1
  6
ByLayer
 10
40.0
 20
70.0
 30
0.0
 11
39.9999999999999858
 21
65.0000000000000142
 31
0.0
  0
LINE
  5
10A
100
AcDbEntity
100
AcDbLine
  8
0
 62
256
370
-1
  6
ByLayer
 10
39.9999999999999858
 20
65.0000000000000142
 30
0.0
 11
19.9999999999999929
 21
65.0000000000000142
 31
0.0
  0
LINE
  5
10B
100
AcDbEntity
100
AcDbLine
  8
0
 62
256
370
-1
  6
ByLayer
 10
19.9999999999999929
 20
65.0000000000000142
 30
0.0
 11
19.9999999999999929
 21
70.0
 31
0.0
  0
LINE
  5
10C
100
AcDbEntity
100
AcDbLine
  8
0
 62
256
370
-1
  6
ByLayer
 10
19.9999999999999929
 20
70.0
 30
0.0
 11
9.9999999999999929
 21
70.0
 31
0.0
  0
ARC
  5
10D
100
AcDbEntity
  8
0
 62
256
370
-1
  6
ByLayer
100
AcDbCircle
 10
245.0
 20
165.75
 30
0.0
 40
1.5
100
AcDbArc
 50
180.0
 51
0.0
  0
ARC
  5
10E
100
AcDbEntity
  8
0
 62
256
370
-1
  6
ByLayer
100
AcDbCircle
 10
245.0
 20
170.75
 30
0.0
 40
1.5
100
AcDbArc
 50
0.0
 51
180.0
  0
LINE
  5
10F
100
AcDbEntity
100
AcDbLine
  8
0
 62
256
370
-1
  6
ByLayer
 10
243.5
 20
170.75
 30
0.0
 11
243.5
 21
165.75
 31
0.0
  0
LINE
  5
110
100
AcDbEntity
100
AcDbLine
  8
0
 62
256
370
-1
  6
ByLayer
 10
246.5
 20
170.75
 30
0.0
 11
246.5
 21
165.75
 31
0.0
  0
INSERT
  5
111
100
AcDbEntity
100
AcDbBlockReference
  8
0
 62
256
370
-1
  6
ByLayer
  2
fdd_stepper-0
 10
253.5
 20
140.75
 30
0.0
 50
90.0
  0
LINE
  5
112
100
AcDbEntity
100
AcDbLine
  8
0
 62
256
370
-1
  6
ByLayer
 10
230.0
 20
130.0
 30
0.0
 11
260.0
 21
130.0
 31
0.0
  0
CIRCLE
  5
113
100
AcDbEntity
100
AcDbCircle
  8
0
 62
256
370
-1
  6
ByLayer
 10
255.0
 20
180.0
 30
0.0
 40
1.5
  0
CIRCLE
  5
114
100
AcDbEntity
100
AcDbCircle
  8
0
 62
256
370
-1
  6
ByLayer
 10
235.0
 20
180.0
 30
0.0
 40
1.5
  0
CIRCLE
  5
115
100
AcDbEntity
100
AcDbCircle
  8
0
 62
256
370
-1
  6
ByLayer
 10
235.0
 20
135.0
 30
0.0
 40
1.5
  0
CIRCLE
  5
116
100
AcDbEntity
100
AcDbCircle
  8
0
 62
256
370
-1
  6
ByLayer
 10
255.0
 20
135.0
 30
0.0
 40
1.5
  0
CIRCLE
  5
117
100
AcDbEntity
100
AcDbCircle
  8
0
 62
256
370
-1
  6
ByLayer
 10
280.3696423308612111
 20
151.25
 30
0.0
 40
1.5
  0
ARC
  5
118
100
AcDbEntity
  8
0
 62
256
370
-1
  6
ByLayer
100
AcDbCircle
 10
280.3696423308612111
 20
165.75
 30
0.0
 40
1.5
100
AcDbArc
 50
180.0
 51
0.0
  0
ARC
  5
119
100
AcDbEntity
  8
0
 62
256
370
-1
  6
ByLayer
100
AcDbCircle
 10
280.3696423308612111
 20
170.75
 30
0.0
 40
1.5
100
AcDbArc
 50
0.0
 51
180.0
  0
LINE
  5
11A
100
AcDbEntity
100
AcDbLine
  8
0
 62
256
370
-1
  6
ByLayer
 10
278.8696423308612111
 20
170.75
 30
0.0
 11
278.8696423308612111
 21
165.75
 31
0.0
  0
LINE
  5
11B
100
AcDbEntity
100
AcDbLine
  8
0
 62
256
370
-1
  6
ByLayer
 10
281.8696423308612111
 20
170.75
 30
0.0
 11
281.8696423308612111
 21
165.75
 31
0.0
  0
LINE
  5
11C
100
AcDbEntity
100
AcDbLine
  8
0
 62
256
370
-1
  6
ByLayer
 10
265.3696423308612111
 20
130.0
 30
0.0
 11
295.3696423308612111
 21
130.0
 31
0.0
  0
CIRCLE
  5
11D
100
AcDbEntity
100
AcDbCircle
  8
0
 62
256
370
-1
  6
ByLayer
 10
290.3696423308612111
 20
180.0
 30
0.0
 40
1.5
  0
CIRCLE
  5
11E
100
AcDbEntity
100
AcDbCircle
  8
0
 62
256
370
-1
  6
ByLayer
 10
270.3696423308612111
 20
180.0
 30
0.0
 40
1.5
  0
CIRCLE
  5
11F
100
AcDbEntity
100
AcDbCircle
  8
0
 62
256
370
-1
  6
ByLayer
 10
270.3696423308612111
 20
135.0
 30
0.0
 40
1.5
  0
CIRCLE
  5
120
100
AcDbEntity
100
AcDbCircle
  8
0
 62
256
370
-1
  6
ByLayer
 10
290.3696423308612111
 20
135.0
 30
0.0
 40
1.5
  0
LINE
  5
121
100
AcDbEntity
100
AcDbLine
  8
0
 62
256
370
-1
  6
ByLayer
 10
120.0
 20
120.0
 30
0.0
 11
130.0
 21
120.0
 31
0.0
  0
LINE
  5
122
100
AcDbEntity
100
AcDbLine
  8
0
 62
256
370
-1
  6
ByLayer
 10
130.0
 20
120.0
 30
0.0
 11
130.0
 21
125.0
 31
0.0
  0
LINE
  5
123
100
AcDbEntity
100
AcDbLine
  8
0
 62
256
370
-1
  6
ByLayer
 10
130.0
 20
125.0
 30
0.0
 11
150.0
 21
125.0
 31
0.0
  0
LINE
  5
124
100
AcDbEntity
100
AcDbLine
  8
0
 62
256
370
-1
  6
ByLayer
 10
150.0
 20
125.0
 30
0.0
 11
150.0
 21
120.0
 31
0.0
  0
LINE
  5
125
100
AcDbEntity
100
AcDbLine
  8
0
 62
256
370
-1
  6
ByLayer
 10
150.0
 20
120.0
 30
0.0
 11
160.0
 21
120.0
 31
0.0
  0
LINE
  5
126
100
AcDbEntity
100
AcDbLine
  8
0
 62
256
370
-1
  6
ByLayer
 10
160.0
 20
120.0
 30
0.0
 11
160.0
 21
125.0
 31
0.0
  0
LINE
  5
127
100
AcDbEntity
100
AcDbLine
  8
0
 62
256
370
-1
  6
ByLayer
 10
160.0
 20
125.0
 30
0.0
 11
180.0
 21
125.0
 31
0.0
  0
LINE
  5
128
100
AcDbEntity
100
AcDbLine
  8
0
 62
256
370
-1
  6
ByLayer
 10
180.0
 20
125.0
 30
0.0
 11
180.0
 21
120.0
 31
0.0
  0
LINE
  5
129
100
AcDbEntity
100
AcDbLine
  8
0
 62
256
370
-1
  6
ByLayer
 10
180.0
 20
120.0
 30
0.0
 11
190.0
 21
120.0
 31
0.0
  0
LINE
  5
12A
100
AcDbEntity
100
AcDbLine
  8
0
 62
256
370
-1
  6
ByLayer
 10
190.0
 20
120.0
 30
0.0
 11
190.0
 21
125.0
 31
0.0
  0
LINE
  5
12B
100
AcDbEntity
100
AcDbLine
  8
0
 62
256
370
-1
  6
ByLayer
 10
190.0
 20
125.0
 30
0.0
 11
210.0
 21
125.0
 31
0.0
  0
LINE
  5
12C
100
AcDbEntity
100
AcDbLine
  8
0
 62
256
370
-1
  6
ByLayer
 10
210.0
 20
125.0
 30
0.0
 11
210.0
 21
120.0
 31
0.0
  0
LINE
  5
12D
100
AcDbEntity
100
AcDbLine
  8
0
 62
256
370
-1
  6
ByLayer
 10
210.0
 20
120.0
 30
0.0
 11
220.0
 21
120.0
 31
0.0
  0
LINE
  5
12E
100
AcDbEntity
100
AcDbLine
  8
0
 62
256
370
-1
  6
ByLayer
 10
220.0
 20
69.9999999999999858
 30
0.0
 11
210.0
 21
70.0
 31
0.0
  0
LINE
  5
12F
100
AcDbEntity
100
AcDbLine
  8
0
 62
256
370
-1
  6
ByLayer
 10
210.0
 20
70.0
 30
0.0
 11
210.0
 21
65.0
 31
0.0
  0
LINE
  5
130
100
AcDbEntity
100
AcDbLine
  8
0
 62
256
370
-1
  6
ByLayer
 10
210.0
 20
65.0
 30
0.0
 11
189.9999999999999716
 21
64.9999999999999858
 31
0.0
  0
LINE
  5
131
100
AcDbEntity
100
AcDbLine
  8
0
 62
256
370
-1
  6
ByLayer
 10
189.9999999999999716
 20
64.9999999999999858
 30
0.0
 11
190.0
 21
70.0
 31
0.0
  0
LINE
  5
132
100
AcDbEntity
100
AcDbLine
  8
0
 62
256
370
-1
  6
ByLayer
 10
190.0
 20
70.0
 30
0.0
 11
180.0
 21
70.0
 31
0.0
  0
LINE
  5
133
100
AcDbEntity
100
AcDbLine
  8
0
 62
256
370
-1
  6
ByLayer
 10
180.0
 20
70.0
 30
0.0
 11
180.0
 21
65.0
 31
0.0
  0
LINE
  5
134
100
AcDbEntity
100
AcDbLine
  8
0
 62
256
370
-1
  6
ByLayer
 10
180.0
 20
65.0
 30
0.0
 11
160.0
 21
65.0
 31
0.0
  0
LINE
  5
135
100
AcDbEntity
100
AcDbLine
  8
0
 62
256
370
-1
  6
ByLayer
 10
160.0
 20
65.0
 30
0.0
 11
160.0
 21
70.0
 31
0.0
  0
LINE
  5
136
100
AcDbEntity
100
AcDbLine
  8
0
 62
256
370
-1
  6
ByLayer
 10
160.0
 20
70.0
 30
0.0
 11
150.0
 21
70.0
 31
0.0
  0
LINE
  5
137
100
AcDbEntity
100
AcDbLine
  8
0
 62
256
370
-1
  6
ByLayer
 10
150.0
 20
70.0
 30
0.0
 11
150.0
 21
65.0000000000000142
 31
0.0
  0
LINE
  5
138
100
AcDbEntity
100
AcDbLine
  8
0
 62
256
370
-1
  6
ByLayer
 10
150.0
 20
65.0000000000000142
 30
0.0
 11
130.0
 21
65.0000000000000142
 31
0.0
  0
LINE
  5
139
100
AcDbEntity
100
AcDbLine
  8
0
 62
256
370
-1
  6
ByLayer
 10
130.0
 20
65.0000000000000142
 30
0.0
 11
130.0
 21
70.0
 31
0.0
  0
LINE
  5
13A
100
AcDbEntity
100
AcDbLine
  8
0
 62
256
370
-1
  6
ByLayer
 10
130.0
 20
70.0
 30
0.0
 11
120.0
 21
70.0
 31
0.0
  0
CIRCLE
  5
13B
100
AcDbEntity
100
AcDbCircle
  8
guide
 62
256
370
-1
  6
ByLayer
 10
280.3696423308612111
 20
151.25
 30
0.0
 40
8.1999999999999993
  0
CIRCLE
  5
13C
100
AcDbEntity
100
AcDbCircle
  8
guide
 62
256
370
-1
  6
ByLayer
 10
280.3696423308612111
 20
168.25
 30
0.0
 40
8.1999999999999993
  0
LINE
  5
13D
100
AcDbEntity
100
AcDbLine
  8
guide
 62
256
370
-1
  6
ByLayer
 10
273.0
 20
159.416142590314081
 30
0.0
 11
210.0
 21
159.416142590314081
 31
0.0
  0
LINE
  5
13E
100
AcDbEntity
100
AcDbLine
  8
0
 62
256
370
-1
  6
ByLayer
 10
20.0
 20
164.416142590314081
 30
0.0
 11
40.0
 21
164.416142590314081
 31
0.0
  0
LINE
  5
13F
100
AcDbEntity
100
AcDbLine
  8
0
 62
256
370
-1
  6
ByLayer
 10
40.0
 20
164.416142590314081
 30
0.0
 11
40.0
 21
159.416142590314081
 31
0.0
  0
LINE
  5
140
100
AcDbEntity
100
AcDbLine
  8
0
 62
256
370
-1
  6
ByLayer
 10
40.0
 20
159.416142590314081
 30
0.0
 11
20.0
 21
159.416142590314081
 31
0.0
  0
LINE
  5
141
100
AcDbEntity
100
AcDbLine
  8
0
 62
256
370
-1
  6
ByLayer
 10
20.0
 20
159.416142590314081
 30
0.0
 11
20.0
 21
164.416142590314081
 31
0.0
  0
LINE
  5
142
100
AcDbEntity
100
AcDbLine
  8
0
 62
256
370
-1
  6
ByLayer
 10
50.0
 20
164.416142590314081
 30
0.0
 11
70.0
 21
164.416142590314081
 31
0.0
  0
LINE
  5
143
100
AcDbEntity
100
AcDbLine
  8
0
 62
256
370
-1
  6
ByLayer
 10
70.0
 20
164.416142590314081
 30
0.0
 11
70.0
 21
159.416142590314081
 31
0.0
  0
LINE
  5
144
100
AcDbEntity
100
AcDbLine
  8
0
 62
256
370
-1
  6
ByLayer
 10
70.0
 20
159.416142590314081
 30
0.0
 11
50.0
 21
159.416142590314081
 31
0.0
  0
LINE
  5
145
100
AcDbEntity
100
AcDbLine
  8
0
 62
256
370
-1
  6
ByLayer
 10
50.0
 20
159.416142590314081
 30
0.0
 11
50.0
 21
164.416142590314081
 31
0.0
  0
LINE
  5
146
100
AcDbEntity
100
AcDbLine
  8
0
 62
256
370
-1
  6
ByLayer
 10
80.0
 20
164.416142590314081
 30
0.0
 11
100.0
 21
164.416142590314081
 31
0.0
  0
LINE
  5
147
100
AcDbEntity
100
AcDbLine
  8
0
 62
256
370
-1
  6
ByLayer
 10
100.0
 20
164.416142590314081
 30
0.0
 11
100.0
 21
159.416142590314081
 31
0.0
  0
LINE
  5
148
100
AcDbEntity
100
AcDbLine
  8
0
 62
256
370
-1
  6
ByLayer
 10
100.0
 20
159.416142590314081
 30
0.0
 11
80.0
 21
159.416142590314081
 31
0.0
  0
LINE
  5
149
100
AcDbEntity
100
AcDbLine
  8
0
 62
256
370
-1
  6
ByLayer
 10
80.0
 20
159.416142590314081
 30
0.0
 11
80.0
 21
164.416142590314081
 31
0.0
  0
LINE
  5
14A
100
AcDbEntity
100
AcDbLine
  8
0
 62
256
370
-1
  6
ByLayer
 10
100.0
 20
149.416142590314081
 30
0.0
 11
80.0
 21
149.416142590314081
 31
0.0
  0
LINE
  5
14B
100
AcDbEntity
100
AcDbLine
  8
0
 62
256
370
-1
  6
ByLayer
 10
70.0
 20
149.416142590314081
 30
0.0
 11
50.0
 21
149.416142590314081
 31
0.0
  0
LINE
  5
14C
100
AcDbEntity
100
AcDbLine
  8
0
 62
256
370
-1
  6
ByLayer
 10
40.0
 20
149.416142590314081
 30
0.0
 11
20.0
 21
149.416142590314081
 31
0.0
  0
LINE
  5
14D
100
AcDbEntity
100
AcDbLine
  8
0
 62
256
370
-1
  6
ByLayer
 10
130.0
 20
164.416142590314081
 30
0.0
 11
150.0
 21
164.416142590314081
 31
0.0
  0
LINE
  5
14E
100
AcDbEntity
100
AcDbLine
  8
0
 62
256
370
-1
  6
ByLayer
 10
150.0
 20
164.416142590314081
 30
0.0
 11
150.0
 21
159.416142590314081
 31
0.0
  0
LINE
  5
14F
100
AcDbEntity
100
AcDbLine
  8
0
 62
256
370
-1
  6
ByLayer
 10
150.0
 20
159.416142590314081
 30
0.0
 11
130.0
 21
159.416142590314081
 31
0.0
  0
LINE
  5
150
100
AcDbEntity
100
AcDbLine
  8
0
 62
256
370
-1
  6
ByLayer
 10
130.0
 20
159.416142590314081
 30
0.0
 11
130.0
 21
164.416142590314081
 31
0.0
  0
LINE
  5
151
100
AcDbEntity
100
AcDbLine
  8
0
 62
256
370
-1
  6
ByLayer
 10
160.0
 20
164.416142590314081
 30
0.0
 11
180.0
 21
164.416142590314081
 31
0.0
  0
LINE
  5
152
100
AcDbEntity
100
AcDbLine
  8
0
 62
256
370
-1
  6
ByLayer
 10
180.0
 20
164.416142590314081
 30
0.0
 11
180.0
 21
159.416142590314081
 31
0.0
  0
LINE
  5
153
100
AcDbEntity
100
AcDbLine
  8
0
 62
256
370
-1
  6
ByLayer
 10
180.0
 20
159.416142590314081
 30
0.0
 11
160.0
 21
159.416142590314081
 31
0.0
  0
LINE
  5
154
100
AcDbEntity
100
AcDbLine
  8
0
 62
256
370
-1
  6
ByLayer
 10
160.0
 20
159.416142590314081
 30
0.0
 11
160.0
 21
164.416142590314081
 31
0.0
  0
LINE
  5
155
100
AcDbEntity
100
AcDbLine
  8
0
 62
256
370
-1
  6
ByLayer
 10
190.0
 20
164.416142590314081
 30
0.0
 11
210.0
 21
164.416142590314081
 31
0.0
  0
LINE
  5
156
100
AcDbEntity
100
AcDbLine
  8
0
 62
256
370
-1
  6
ByLayer
 10
210.0
 20
164.416142590314081
 30
0.0
 11
210.0
 21
159.416142590314081
 31
0.0
  0
LINE
  5
157
100
AcDbEntity
100
AcDbLine
  8
0
 62
256
370
-1
  6
ByLayer
 10
210.0
 20
159.416142590314081
 30
0.0
 11
190.0
 21
159.416142590314081
 31
0.0
  0
LINE
  5
158
100
AcDbEntity
100
AcDbLine
  8
0
 62
256
370
-1
  6
ByLayer
 10
190.0
 20
159.416142590314081
 30
0.0
 11
190.0
 21
164.416142590314081
 31
0.0
  0
LINE
  5
159
100
AcDbEntity
100
AcDbLine
  8
0
 62
256
370
-1
  6
ByLayer
 10
210.0
 20
149.416142590314081
 30
0.0
 11
190.0
 21
149.416142590314081
 31
0.0
  0
LINE
  5
15A
100
AcDbEntity
100
AcDbLine
  8
0
 62
256
370
-1
  6
ByLayer
 10
180.0
 20
149.416142590314081
 30
0.0
 11
160.0
 21
149.416142590314081
 31
0.0
  0
LINE
  5
15B
100
AcDbEntity
100
AcDbLine
  8
0
 62
256
370
-1
  6
ByLayer
 10
150.0
 20
149.416142590314081
 30
0.0
 11
130.0
 21
149.416142590314081
 31
0.0
  0
LINE
  5
15C
100
AcDbEntity
100
AcDbLine
  8
0
 62
256
370
-1
  6
ByLayer
 10
20.0
 20
149.416142590314081
 30
0.0
 11
20.0
 21
140.0
 31
0.0
  0
LINE
  5
15D
100
AcDbEntity
100
AcDbLine
  8
0
 62
256
370
-1
  6
ByLayer
 10
40.0
 20
140.0
 30
0.0
 11
40.0
 21
149.416142590314081
 31
0.0
  0
LINE
  5
15E
100
AcDbEntity
100
AcDbLine
  8
0
 62
256
370
-1
  6
ByLayer
 10
50.0
 20
149.416142590314081
 30
0.0
 11
50.0
 21
140.0
 31
0.0
  0
LINE
  5
15F
100
AcDbEntity
100
AcDbLine
  8
0
 62
256
370
-1
  6
ByLayer
 10
70.0
 20
140.0
 30
0.0
 11
70.0
 21
149.416142590314081
 31
0.0
  0
LINE
  5
160
100
AcDbEntity
100
AcDbLine
  8
0
 62
256
370
-1
  6
ByLayer
 10
80.0
 20
149.416142590314081
 30
0.0
 11
80.0
 21
140.0
 31
0.0
  0
LINE
  5
161
100
AcDbEntity
100
AcDbLine
  8
0
 62
256
370
-1
  6
ByLayer
 10
100.0
 20
140.0
 30
0.0
 11
100.0
 21
149.416142590314081
 31
0.0
  0
LINE
  5
162
100
AcDbEntity
100
AcDbLine
  8
0
 62
256
370
-1
  6
ByLayer
 10
130.0
 20
149.416142590314081
 30
0.0
 11
130.0
 21
140.0
 31
0.0
  0
LINE
  5
163
100
AcDbEntity
100
AcDbLine
  8
0
 62
256
370
-1
  6
ByLayer
 10
150.0
 20
140.0
 30
0.0
 11
150.0
 21
149.416142590314081
 31
0.0
  0
LINE
  5
164
100
AcDbEntity
100
AcDbLine
  8
0
 62
256
370
-1
  6
ByLayer
 10
160.0
 20
149.416142590314081
 30
0.0
 11
160.0
 21
140.0
 31
0.0
  0
LINE
  5
165
100
AcDbEntity
100
AcDbLine
  8
0
 62
256
370
-1
  6
ByLayer
 10
180.0
 20
140.0
 30
0.0
 11
180.0
 21
149.416142590314081
 31
0.0
  0
LINE
  5
166
100
AcDbEntity
100
AcDbLine
  8
0
 62
256
370
-1
  6
ByLayer
 10
190.0
 20
149.416142590314081
 30
0.0
 11
190.0
 21
140.0
 31
0.0
  0
LINE
  5
167
100
AcDbEntity
100
AcDbLine
  8
0
 62
256
370
-1
  6
ByLayer
 10
210.0
 20
140.0
 30
0.0
 11
210.0
 21
149.416142590314081
 31
0.0
  0
CIRCLE
  5
168
100
AcDbEntity
100
AcDbCircle
  8
0
 62
256
370
-1
  6
ByLayer
 10
15.0
 20
50.75
 30
0.0
 40
1.5
  0
CIRCLE
  5
169
100
AcDbEntity
100
AcDbCircle
  8
0
 62
256
370
-1
  6
ByLayer
 10
45.0
 20
50.75
 30
0.0
 40
1.5
  0
CIRCLE
  5
16A
100
AcDbEntity
100
AcDbCircle
  8
0
 62
256
370
-1
  6
ByLayer
 10
75.0
 20
50.75
 30
0.0
 40
1.5
  0
CIRCLE
  5
16B
100
AcDbEntity
100
AcDbCircle
  8
0
 62
256
370
-1
  6
ByLayer
 10
105.0
 20
50.75
 30
0.0
 40
1.5
  0
CIRCLE
  5
16C
100
AcDbEntity
100
AcDbCircle
  8
0
 62
256
370
-1
  6
ByLayer
 10
15.0
 20
110.75
 30
0.0
 40
1.5
  0
CIRCLE
  5
16D
100
AcDbEntity
100
AcDbCircle
  8
0
 62
256
370
-1
  6
ByLayer
 10
45.0
 20
110.75
 30
0.0
 40
1.5
  0
CIRCLE
  5
16E
100
AcDbEntity
100
AcDbCircle
  8
0
 62
256
370
-1
  6
ByLayer
 10
75.0
 20
110.75
 30
0.0
 40
1.5
  0
CIRCLE
  5
16F
100
AcDbEntity
100
AcDbCircle
  8
0
 62
256
370
-1
  6
ByLayer
 10
105.0
 20
110.75
 30
0.0
 40
1.5
  0
CIRCLE
  5
170
100
AcDbEntity
100
AcDbCircle
  8
0
 62
256
370
-1
  6
ByLayer
 10
30.0
 20
110.75
 30
0.0
 40
1.5
  0
CIRCLE
  5
171
100
AcDbEntity
100
AcDbCircle
  8
0
 62
256
370
-1
  6
ByLayer
 10
60.0
 20
110.75
 30
0.0
 40
1.5
  0
CIRCLE
  5
172
100
AcDbEntity
100
AcDbCircle
  8
0
 62
256
370
-1
  6
ByLayer
 10
90.0
 20
110.75
 30
0.0
 40
1.5
  0
CIRCLE
  5
173
100
AcDbEntity
100
AcDbCircle
  8
0
 62
256
370
-1
  6
ByLayer
 10
125.0
 20
110.75
 30
0.0
 40
1.5
  0
CIRCLE
  5
174
100
AcDbEntity
100
AcDbCircle
  8
0
 62
256
370
-1
  6
ByLayer
 10
155.0
 20
110.75
 30
0.0
 40
1.5
  0
CIRCLE
  5
175
100
AcDbEntity
100
AcDbCircle
  8
0
 62
256
370
-1
  6
ByLayer
 10
185.0
 20
110.75
 30
0.0
 40
1.5
  0
CIRCLE
  5
176
100
AcDbEntity
100
AcDbCircle
  8
0
 62
256
370
-1
  6
ByLayer
 10
215.0
 20
110.75
 30
0.0
 40
1.5
  0
CIRCLE
  5
177
100
AcDbEntity
100
AcDbCircle
  8
0
 62
256
370
-1
  6
ByLayer
 10
140.0
 20
110.75
 30
0.0
 40
1.5
  0
CIRCLE
  5
178
100
AcDbEntity
100
AcDbCircle
  8
0
 62
256
370
-1
  6
ByLayer
 10
170.0
 20
110.75
 30
0.0
 40
1.5
  0
CIRCLE
  5
179
100
AcDbEntity
100
AcDbCircle
  8
0
 62
256
370
-1
  6
ByLayer
 10
200.0
 20
110.75
 30
0.0
 40
1.5
  0
CIRCLE
  5
17A
100
AcDbEntity
100
AcDbCircle
  8
0
 62
256
370
-1
  6
ByLayer
 10
15.0
 20
20.0
 30
0.0
 40
1.5
  0
CIRCLE
  5
17B
100
AcDbEntity
100
AcDbCircle
  8
0
 62
256
370
-1
  6
ByLayer
 10
45.0
 20
20.0
 30
0.0
 40
1.5
  0
CIRCLE
  5
17C
100
AcDbEntity
100
AcDbCircle
  8
0
 62
256
370
-1
  6
ByLayer
 10
75.0
 20
20.0
 30
0.0
 40
1.5
  0
CIRCLE
  5
17D
100
AcDbEntity
100
AcDbCircle
  8
0
 62
256
370
-1
  6
ByLayer
 10
105.0
 20
20.0
 30
0.0
 40
1.5
  0
CIRCLE
  5
17E
100
AcDbEntity
100
AcDbCircle
  8
0
 62
256
370
-1
  6
ByLayer
 10
15.0
 20
80.0
 30
0.0
 40
1.5
  0
CIRCLE
  5
17F
100
AcDbEntity
100
AcDbCircle
  8
0
 62
256
370
-1
  6
ByLayer
 10
45.0
 20
80.0
 30
0.0
 40
1.5
  0
CIRCLE
  5
180
100
AcDbEntity
100
AcDbCircle
  8
0
 62
256
370
-1
  6
ByLayer
 10
75.0
 20
80.0
 30
0.0
 40
1.5
  0
CIRCLE
  5
181
100
AcDbEntity
100
AcDbCircle
  8
0
 62
256
370
-1
  6
ByLayer
 10
105.0
 20
80.0
 30
0.0
 40
1.5
  0
CIRCLE
  5
182
100
AcDbEntity
100
AcDbCircle
  8
0
 62
256
370
-1
  6
ByLayer
 10
30.0
 20
80.0
 30
0.0
 40
1.5
  0
CIRCLE
  5
183
100
AcDbEntity
100
AcDbCircle
  8
0
 62
256
370
-1
  6
ByLayer
 10
60.0
 20
80.0
 30
0.0
 40
1.5
  0
CIRCLE
  5
184
100
AcDbEntity
100
AcDbCircle
  8
0
 62
256
370
-1
  6
ByLayer
 10
90.0
 20
80.0
 30
0.0
 40
1.5
  0
CIRCLE
  5
185
100
AcDbEntity
100
AcDbCircle
  8
0
 62
256
370
-1
  6
ByLayer
 10
125.0
 20
80.0
 30
0.0
 40
1.5
  0
CIRCLE
  5
186
100
AcDbEntity
100
AcDbCircle
  8
0
 62
256
370
-1
  6
ByLayer
 10
155.0
 20
80.0
 30
0.0
 40
1.5
  0
CIRCLE
  5
187
100
AcDbEntity
100
AcDbCircle
  8
0
 62
256
370
-1
  6
ByLayer
 10
185.0
 20
80.0
 30
0.0
 40
1.5
  0
CIRCLE
  5
188
100
AcDbEntity
100
AcDbCircle
  8
0
 62
256
370
-1
  6
ByLayer
 10
215.0
 20
80.0
 30
0.0
 40
1.5
  0
CIRCLE
  5
189
100
AcDbEntity
100
AcDbCircle
  8
0
 62
256
370
-1
  6
ByLayer
 10
140.0
 20
80.0
 30
0.0
 40
1.5
  0
CIRCLE
  5
18A
100
AcDbEntity
100
AcDbCircle
  8
0
 62
256
370
-1
  6
ByLayer
 10
170.0
 20
80.0
 30
0.0
 40
1.5
  0
CIRCLE
  5
18B
100
AcDbEntity
100
AcDbCircle
  8
0
 62
256
370
-1
  6
ByLayer
 10
200.0
 20
80.0
 30
0.0
 40
1.5
  0
LINE
  5
18C
100
AcDbEntity
100
AcDbLine
  8
0
 62
256
370
-1
  6
ByLayer
 10
10.0
 20
130.0
 30
0.0
 11
10.0
 21
175.0
 31
0.0
  0
ARC
  5
18D
100
AcDbEntity
  8
0
 62
256
370
-1
  6
ByLayer
100
AcDbCircle
 10
15.0
 20
175.0
 30
0.0
 40
5.0
100
AcDbArc
 50
90.0
 51
180.0
  0
LINE
  5
18E
100
AcDbEntity
100
AcDbLine
  8
0
 62
256
370
-1
  6
ByLayer
 10
15.0
 20
180.0
 30
0.0
 11
105.0
 21
180.0
 31
0.0
  0
LINE
  5
18F
100
AcDbEntity
100
AcDbLine
  8
0
 62
256
370
-1
  6
ByLayer
 10
110.0
 20
175.0
 30
0.0
 11
110.0
 21
130.0
 31
0.0
  0
ARC
  5
190
100
AcDbEntity
  8
0
 62
256
370
-1
  6
ByLayer
100
AcDbCircle
 10
105.0
 20
175.0
 30
0.0
 40
5.0
100
AcDbArc
 50
0.0
 51
90.0
  0
LINE
  5
191
100
AcDbEntity
100
AcDbLine
  8
0
 62
256
370
-1
  6
ByLayer
 10
120.0
 20
130.0
 30
0.0
 11
120.0
 21
175.0
 31
0.0
  0
ARC
  5
192
100
AcDbEntity
  8
0
 62
256
370
-1
  6
ByLayer
100
AcDbCircle
 10
125.0
 20
175.0
 30
0.0
 40
5.0
100
AcDbArc
 50
90.0
 51
180.0
  0
LINE
  5
193
100
AcDbEntity
100
AcDbLine
  8
0
 62
256
370
-1
  6
ByLayer
 10
125.0
 20
180.0
 30
0.0
 11
215.0
 21
180.0
 31
0.0
  0
LINE
  5
194
100
AcDbEntity
100
AcDbLine
  8
0
 62
256
370
-1
  6
ByLayer
 10
220.0
 20
175.0
 30
0.0
 11
220.0
 21
130.0
 31
0.0
  0
ARC
  5
195
100
AcDbEntity
  8
0
 62
256
370
-1
  6
ByLayer
100
AcDbCircle
 10
215.0
 20
175.0
 30
0.0
 40
5.0
100
AcDbArc
 50
0.0
 51
90.0
  0
ARC
  5
196
100
AcDbEntity
  8
0
 62
256
370
-1
  6
ByLayer
100
AcDbCircle
 10
15.0
 20
55.0
 30
0.0
 40
5.0
100
AcDbArc
 50
90.0
 51
180.0
  0
LINE
  5
197
100
AcDbEntity
100
AcDbLine
  8
0
 62
256
370
-1
  6
ByLayer
 10
105.0
 20
60.0
 30
0.0
 11
15.0
 21
60.0
 31
0.0
  0
ARC
  5
198
100
AcDbEntity
  8
0
 62
256
370
-1
  6
ByLayer
100
AcDbCircle
 10
105.0
 20
55.0
 30
0.0
 40
5.0
100
AcDbArc
 50
0.0
 51
90.0
  0
LINE
  5
199
100
AcDbEntity
100
AcDbLine
  8
0
 62
256
370
-1
  6
ByLayer
 10
110.0
 20
15.0
 30
0.0
 11
110.0
 21
55.0
 31
0.0
  0
ARC
  5
19A
100
AcDbEntity
  8
0
 62
256
370
-1
  6
ByLayer
100
AcDbCircle
 10
105.0
 20
15.0
 30
0.0
 40
5.0
100
AcDbArc
 50
270.0
 51
0.0
  0
LINE
  5
19B
100
AcDbEntity
100
AcDbLine
  8
0
 62
256
370
-1
  6
ByLayer
 10
15.0
 20
10.0
 30
0.0
 11
105.0
 21
10.0
 31
0.0
  0
LINE
  5
19C
100
AcDbEntity
100
AcDbLine
  8
0
 62
256
370
-1
  6
ByLayer
 10
10.0
 20
55.0
 30
0.0
 11
10.0
 21
15.0
 31
0.0
  0
ARC
  5
19D
100
AcDbEntity
  8
0
 62
256
370
-1
  6
ByLayer
100
AcDbCircle
 10
15.0
 20
15.0
 30
0.0
 40
5.0
100
AcDbArc
 50
180.0
 51
270.0
  0
LINE
  5
19E
100
AcDbEntity
100
AcDbLine
  8
0
 62
256
370
-1
  6
ByLayer
 10
230.0
 20
180.0
 30
0.0
 11
230.0
 21
130.0
 31
0.0
  0
ARC
  5
19F
100
AcDbEntity
  8
0
 62
256
370
-1
  6
ByLayer
100
AcDbCircle
 10
235.0
 20
180.0
 30
0.0
 40
5.0
100
AcDbArc
 50
90.0
 51
180.0
  0
LINE
  5
1A0
100
AcDbEntity
100
AcDbLine
  8
0
 62
256
370
-1
  6
ByLayer
 10
235.0
 20
185.0
 30
0.0
 11
255.0
 21
185.0
 31
0.0
  0
LINE
  5
1A1
100
AcDbEntity
100
AcDbLine
  8
0
 62
256
370
-1
  6
ByLayer
 10
260.0
 20
130.0
 30
0.0
 11
260.0
 21
180.0
 31
0.0
  0
ARC
  5
1A2
100
AcDbEntity
  8
0
 62
256
370
-1
  6
ByLayer
100
AcDbCircle
 10
255.0
 20
180.0
 30
0.0
 40
5.0
100
AcDbArc
 50
0.0
 51
90.0
  0
LINE
  5
1A3
100
AcDbEntity
100
AcDbLine
  8
0
 62
256
370
-1
  6
ByLayer
 10
265.3696423308612111
 20
180.0
 30
0.0
 11
265.3696423308612111
 21
130.0
 31
0.0
  0
ARC
  5
1A4
100
AcDbEntity
  8
0
 62
256
370
-1
  6
ByLayer
100
AcDbCircle
 10
270.3696423308612111
 20
180.0
 30
0.0
 40
5.0
100
AcDbArc
 50
90.0
 51
180.0
  0
LINE
  5
1A5
100
AcDbEntity
100
AcDbLine
  8
0
 62
256
370
-1
  6
ByLayer
 10
270.3696423308612111
 20
185.0
 30
0.0
 11
290.3696423308612111
 21
185.0
 31
0.0
  0
LINE
  5
1A6
100
AcDbEntity
100
AcDbLine
  8
0
 62
256
370
-1
  6
ByLayer
 10
295.3696423308612111
 20
130.0
 30
0.0
 11
295.3696423308612111
 21
180.0
 31
0.0
  0
ARC
  5
1A7
100
AcDbEntity
  8
0
 62
256
370
-1
  6
ByLayer
100
AcDbCircle
 10
290.3696423308612111
 20
180.0
 30
0.0
 40
5.0
100
AcDbArc
 50
0.0
 51
90.0
  0
CIRCLE
  5
1A8
100
AcDbEntity
100
AcDbCircle
  8
0
 62
256
370
-1
  6
ByLayer
 10
240.0
 20
60.0
 30
0.0
 40
1.5
  0
LINE
  5
1A9
100
AcDbEntity
100
AcDbLine
  8
guide
 62
256
370
-1
  6
ByLayer
 10
10.0
 20
32.0
 30
0.0
 11
300.0
 21
32.0
 31
0.0
  0
LINE
  5
1AA
100
AcDbEntity
100
AcDbLine
  8
guide
 62
256
370
-1
  6
ByLayer
 10
10.0
 20
35.0
 30
0.0
 11
300.0
 21
35.0
 31
0.0
  0
LINE
  5
1AB
100
AcDbEntity
100
AcDbLine
  8
guide
 62
256
370
-1
  6
ByLayer
 10
10.0
 20
38.0
 30
0.0
 11
300.0
 21
38.0
 31
0.0
  0
LINE
  5
1AC
100
AcDbEntity
100
AcDbLine
  8
guide
 62
256
370
-1
  6
ByLayer
 10
240.0
 20
60.0
 30
0.0
 11
240.0
 21
20.0
 31
0.0
  0
LINE
  5
1AD
100
AcDbEntity
100
AcDbLine
  8
0
 62
256
370
-1
  6
ByLayer
 10
230.0
 20
80.0
 30
0.0
 11
230.0
 21
15.0
 31
0.0
  0
ARC
  5
1AE
100
AcDbEntity
  8
0
 62
256
370
-1
  6
ByLayer
100
AcDbCircle
 10
235.0
 20
15.0
 30
0.0
 40
5.0
100
AcDbArc
 50
180.0
 51
270.0
  0
LINE
  5
1AF
100
AcDbEntity
100
AcDbLine
  8
0
 62
256
370
-1
  6
ByLayer
 10
230.0
 20
85.0
 30
0.0
 11
230.0
 21
80.0
 31
0.0
  0
LINE
  5
1B0
100
AcDbEntity
100
AcDbLine
  8
guide
 62
256
370
-1
  6
ByLayer
 10
235.0
 20
60.0
 30
0.0
 11
235.0
 21
20.0
 31
0.0
  0
LINE
  5
1B1
100
AcDbEntity
100
AcDbLine
  8
0
 62
256
370
-1
  6
ByLayer
 10
245.0
 20
38.0
 30
0.0
 11
240.0
 21
38.0
 31
0.0
  0
LINE
  5
1B2
100
AcDbEntity
100
AcDbLine
  8
0
 62
256
370
-1
  6
ByLayer
 10
240.0
 20
38.0
 30
0.0
 11
240.0
 21
32.0
 31
0.0
  0
LINE
  5
1B3
100
AcDbEntity
100
AcDbLine
  8
0
 62
256
370
-1
  6
ByLayer
 10
240.0
 20
32.0
 30
0.0
 11
245.0
 21
32.0
 31
0.0
  0
LINE
  5
1B4
100
AcDbEntity
100
AcDbLine
  8
0
 62
256
370
-1
  6
ByLayer
 10
260.0
 20
10.0
 30
0.0
 11
260.0
 21
20.0
 31
0.0
  0
ARC
  5
1B5
100
AcDbEntity
  8
0
 62
256
370
-1
  6
ByLayer
100
AcDbCircle
 10
255.0
 20
20.0
 30
0.0
 40
5.0
100
AcDbArc
 50
0.0
 51
90.0
  0
LINE
  5
1B6
100
AcDbEntity
100
AcDbLine
  8
0
 62
256
370
-1
  6
ByLayer
 10
255.0
 20
25.0
 30
0.0
 11
250.0
 21
25.0
 31
0.0
  0
ARC
  5
1B7
100
AcDbEntity
  8
0
 62
256
370
-1
  6
ByLayer
100
AcDbCircle
 10
250.0
 20
30.0
 30
0.0
 40
5.0
100
AcDbArc
 50
180.0
 51
270.0
  0
CIRCLE
  5
1B8
100
AcDbEntity
100
AcDbCircle
  8
0
 62
256
370
-1
  6
ByLayer
 10
240.0
 20
20.0
 30
0.0
 40
1.5
  0
CIRCLE
  5
1B9
100
AcDbEntity
100
AcDbCircle
  8
0
 62
256
370
-1
  6
ByLayer
 10
255.0
 20
20.0
 30
0.0
 40
2.0
  0
LINE
  5
1BA
100
AcDbEntity
100
AcDbLine
  8
0
 62
256
370
-1
  6
ByLayer
 10
235.0
 20
10.0
 30
0.0
 11
260.0
 21
10.0
 31
0.0
  0
ARC
  5
1BB
100
AcDbEntity
  8
0
 62
256
370
-1
  6
ByLayer
100
AcDbCircle
 10
240.0
 20
95.0
 30
0.0
 40
5.0
100
AcDbArc
 50
0.0
 51
90.0
  0
ARC
  5
1BC
100
AcDbEntity
  8
0
 62
256
370
-1
  6
ByLayer
100
AcDbCircle
 10
235.0
 20
95.0
 30
0.0
 40
5.0
100
AcDbArc
 50
90.0
 51
180.0
  0
LINE
  5
1BD
100
AcDbEntity
100
AcDbLine
  8
0
 62
256
370
-1
  6
ByLayer
 10
230.0
 20
85.0
 30
0.0
 11
230.0
 21
95.0
 31
0.0
  0
LINE
  5
1BE
100
AcDbEntity
100
AcDbLine
  8
0
 62
256
370
-1
  6
ByLayer
 10
245.0
 20
85.0
 30
0.0
 11
245.0
 21
95.0
 31
0.0
  0
LINE
  5
1BF
100
AcDbEntity
100
AcDbLine
  8
0
 62
256
370
-1
  6
ByLayer
 10
235.0
 20
100.0
 30
0.0
 11
240.0
 21
100.0
 31
0.0
  0
CIRCLE
  5
1C0
100
AcDbEntity
100
AcDbCircle
  8
0
 62
256
370
-1
  6
ByLayer
 10
240.0
 20
95.0
 30
0.0
 40
1.5
  0
CIRCLE
  5
1C1
100
AcDbEntity
100
AcDbCircle
  8
0
 62
256
370
-1
  6
ByLayer
 10
280.0
 20
60.0
 30
0.0
 40
1.5
  0
LINE
  5
1C2
100
AcDbEntity
100
AcDbLine
  8
0
 62
256
370
-1
  6
ByLayer
 10
270.0
 20
80.0
 30
0.0
 11
270.0
 21
15.0
 31
0.0
  0
ARC
  5
1C3
100
AcDbEntity
  8
0
 62
256
370
-1
  6
ByLayer
100
AcDbCircle
 10
275.0
 20
15.0
 30
0.0
 40
5.0
100
AcDbArc
 50
180.0
 51
270.0
  0
LINE
  5
1C4
100
AcDbEntity
100
AcDbLine
  8
0
 62
256
370
-1
  6
ByLayer
 10
270.0
 20
85.0
 30
0.0
 11
270.0
 21
80.0
 31
0.0
  0
LINE
  5
1C5
100
AcDbEntity
100
AcDbLine
  8
0
 62
256
370
-1
  6
ByLayer
 10
300.0
 20
10.0
 30
0.0
 11
300.0
 21
20.0
 31
0.0
  0
ARC
  5
1C6
100
AcDbEntity
  8
0
 62
256
370
-1
  6
ByLayer
100
AcDbCircle
 10
295.0
 20
20.0
 30
0.0
 40
5.0
100
AcDbArc
 50
0.0
 51
90.0
  0
LINE
  5
1C7
100
AcDbEntity
100
AcDbLine
  8
0
 62
256
370
-1
  6
ByLayer
 10
295.0
 20
25.0
 30
0.0
 11
290.0
 21
25.0
 31
0.0
  0
ARC
  5
1C8
100
AcDbEntity
  8
0
 62
256
370
-1
  6
ByLayer
100
AcDbCircle
 10
290.0
 20
30.0
 30
0.0
 40
5.0
100
AcDbArc
 50
180.0
 51
270.0
  0
CIRCLE
  5
1C9
100
AcDbEntity
100
AcDbCircle
  8
0
 62
256
370
-1
  6
ByLayer
 10
280.0
 20
20.0
 30
0.0
 40
1.5
  0
CIRCLE
  5
1CA
100
AcDbEntity
100
AcDbCircle
  8
0
 62
256
370
-1
  6
ByLayer
 10
295.0
 20
20.0
 30
0.0
 40
2.0
  0
LINE
  5
1CB
100
AcDbEntity
100
AcDbLine
  8
0
 62
256
370
-1
  6
ByLayer
 10
275.0
 20
10.0
 30
0.0
 11
300.0
 21
10.0
 31
0.0
  0
ARC
  5
1CC
100
AcDbEntity
  8
0
 62
256
370
-1
  6
ByLayer
100
AcDbCircle
 10
280.0
 20
95.0
 30
0.0
 40
5.0
100
AcDbArc
 50
0.0
 51
90.0
  0
ARC
  5
1CD
100
AcDbEntity
  8
0
 62
256
370
-1
  6
ByLayer
100
AcDbCircle
 10
275.0
 20
95.0
 30
0.0
 40
5.0
100
AcDbArc
 50
90.0
 51
180.0
  0
LINE
  5
1CE
100
AcDbEntity
100
AcDbLine
  8
0
 62
256
370
-1
  6
ByLayer
 10
270.0
 20
85.0
 30
0.0
 11
270.0
 21
95.0
 31
0.0
  0
LINE
  5
1CF
100
AcDbEntity
100
AcDbLine
  8
0
 62
256
370
-1
  6
ByLayer
 10
285.0
 20
85.0
 30
0.0
 11
285.0
 21
95.0
 31
0.0
  0
LINE
  5
1D0
100
AcDbEntity
100
AcDbLine
  8
0
 62
256
370
-1
  6
ByLayer
 10
275.0
 20
100.0
 30
0.0
 11
280.0
 21
100.0
 31
0.0
  0
CIRCLE
  5
1D1
100
AcDbEntity
100
AcDbCircle
  8
0
 62
256
370
-1
  6
ByLayer
 10
280.0
 20
95.0
 30
0.0
 40
1.5
  0
CIRCLE
  5
1D2
100
AcDbEntity
100
AcDbCircle
  8
0
 62
256
370
-1
  6
ByLayer
 10
320.0
 20
60.0
 30
0.0
 40
1.5
  0
LINE
  5
1D3
100
AcDbEntity
100
AcDbLine
  8
0
 62
256
370
-1
  6
ByLayer
 10
310.0
 20
80.0
 30
0.0
 11
310.0
 21
15.0
 31
0.0
  0
ARC
  5
1D4
100
AcDbEntity
  8
0
 62
256
370
-1
  6
ByLayer
100
AcDbCircle
 10
315.0
 20
15.0
 30
0.0
 40
5.0
100
AcDbArc
 50
180.0
 51
270.0
  0
LINE
  5
1D5
100
AcDbEntity
100
AcDbLine
  8
0
 62
256
370
-1
  6
ByLayer
 10
310.0
 20
85.0
 30
0.0
 11
310.0
 21
80.0
 31
0.0
  0
LINE
  5
1D6
100
AcDbEntity
100
AcDbLine
  8
0
 62
256
370
-1
  6
ByLayer
 10
340.0
 20
10.0
 30
0.0
 11
340.0
 21
20.0
 31
0.0
  0
ARC
  5
1D7
100
AcDbEntity
  8
0
 62
256
370
-1
  6
ByLayer
100
AcDbCircle
 10
335.0
 20
20.0
 30
0.0
 40
5.0
100
AcDbArc
 50
0.0
 51
90.0
  0
LINE
  5
1D8
100
AcDbEntity
100
AcDbLine
  8
0
 62
256
370
-1
  6
ByLayer
 10
335.0
 20
25.0
 30
0.0
 11
330.0
 21
25.0
 31
0.0
  0
CIRCLE
  5
1D9
100
AcDbEntity
100
AcDbCircle
  8
0
 62
256
370
-1
  6
ByLayer
 10
320.0
 20
20.0
 30
0.0
 40
1.5
  0
CIRCLE
  5
1DA
100
AcDbEntity
100
AcDbCircle
  8
0
 62
256
370
-1
  6
ByLayer
 10
335.0
 20
20.0
 30
0.0
 40
2.0
  0
LINE
  5
1DB
100
AcDbEntity
100
AcDbLine
  8
0
 62
256
370
-1
  6
ByLayer
 10
315.0
 20
10.0
 30
0.0
 11
340.0
 21
10.0
 31
0.0
  0
ARC
  5
1DC
100
AcDbEntity
  8
0
 62
256
370
-1
  6
ByLayer
100
AcDbCircle
 10
320.0
 20
95.0
 30
0.0
 40
5.0
100
AcDbArc
 50
0.0
 51
90.0
  0
ARC
  5
1DD
100
AcDbEntity
  8
0
 62
256
370
-1
  6
ByLayer
100
AcDbCircle
 10
315.0
 20
95.0
 30
0.0
 40
5.0
100
AcDbArc
 50
90.0
 51
180.0
  0
LINE
  5
1DE
100
AcDbEntity
100
AcDbLine
  8
0
 62
256
370
-1
  6
ByLayer
 10
310.0
 20
85.0
 30
0.0
 11
310.0
 21
95.0
 31
0.0
  0
LINE
  5
1DF
100
AcDbEntity
100
AcDbLine
  8
0
 62
256
370
-1
  6
ByLayer
 10
325.0
 20
85.0
 30
0.0
 11
325.0
 21
95.0
 31
0.0
  0
LINE
  5
1E0
100
AcDbEntity
100
AcDbLine
  8
0
 62
256
370
-1
  6
ByLayer
 10
315.0
 20
100.0
 30
0.0
 11
320.0
 21
100.0
 31
0.0
  0
CIRCLE
  5
1E1
100
AcDbEntity
100
AcDbCircle
  8
0
 62
256
370
-1
  6
ByLayer
 10
320.0
 20
95.0
 30
0.0
 40
1.5
  0
CIRCLE
  5
1E2
100
AcDbEntity
100
AcDbCircle
  8
0
 62
256
370
-1
  6
ByLayer
 10
360.0
 20
60.0
 30
0.0
 40
1.5
  0
LINE
  5
1E3
100
AcDbEntity
100
AcDbLine
  8
0
 62
256
370
-1
  6
ByLayer
 10
350.0
 20
80.0
 30
0.0
 11
350.0
 21
15.0
 31
0.0
  0
ARC
  5
1E4
100
AcDbEntity
  8
0
 62
256
370
-1
  6
ByLayer
100
AcDbCircle
 10
355.0
 20
15.0
 30
0.0
 40
5.0
100
AcDbArc
 50
180.0
 51
270.0
  0
LINE
  5
1E5
100
AcDbEntity
100
AcDbLine
  8
0
 62
256
370
-1
  6
ByLayer
 10
350.0
 20
85.0
 30
0.0
 11
350.0
 21
80.0
 31
0.0
  0
LINE
  5
1E6
100
AcDbEntity
100
AcDbLine
  8
0
 62
256
370
-1
  6
ByLayer
 10
365.0
 20
38.0
 30
0.0
 11
360.0
 21
38.0
 31
0.0
  0
LINE
  5
1E7
100
AcDbEntity
100
AcDbLine
  8
0
 62
256
370
-1
  6
ByLayer
 10
360.0
 20
38.0
 30
0.0
 11
360.0
 21
32.0
 31
0.0
  0
LINE
  5
1E8
100
AcDbEntity
100
AcDbLine
  8
0
 62
256
370
-1
  6
ByLayer
 10
360.0
 20
32.0
 30
0.0
 11
365.0
 21
32.0
 31
0.0
  0
LINE
  5
1E9
100
AcDbEntity
100
AcDbLine
  8
0
 62
256
370
-1
  6
ByLayer
 10
380.0
 20
10.0
 30
0.0
 11
380.0
 21
20.0
 31
0.0
  0
ARC
  5
1EA
100
AcDbEntity
  8
0
 62
256
370
-1
  6
ByLayer
100
AcDbCircle
 10
375.0
 20
20.0
 30
0.0
 40
5.0
100
AcDbArc
 50
0.0
 51
90.0
  0
LINE
  5
1EB
100
AcDbEntity
100
AcDbLine
  8
0
 62
256
370
-1
  6
ByLayer
 10
375.0
 20
25.0
 30
0.0
 11
370.0
 21
25.0
 31
0.0
  0
ARC
  5
1EC
100
AcDbEntity
  8
0
 62
256
370
-1
  6
ByLayer
100
AcDbCircle
 10
370.0
 20
30.0
 30
0.0
 40
5.0
100
AcDbArc
 50
180.0
 51
270.0
  0
CIRCLE
  5
1ED
100
AcDbEntity
100
AcDbCircle
  8
0
 62
256
370
-1
  6
ByLayer
 10
360.0
 20
20.0
 30
0.0
 40
1.5
  0
CIRCLE
  5
1EE
100
AcDbEntity
100
AcDbCircle
  8
0
 62
256
370
-1
  6
ByLayer
 10
375.0
 20
20.0
 30
0.0
 40
2.0
  0
LINE
  5
1EF
100
AcDbEntity
100
AcDbLine
  8
0
 62
256
370
-1
  6
ByLayer
 10
355.0
 20
10.0
 30
0.0
 11
380.0
 21
10.0
 31
0.0
  0
ARC
  5
1F0
100
AcDbEntity
  8
0
 62
256
370
-1
  6
ByLayer
100
AcDbCircle
 10
360.0
 20
95.0
 30
0.0
 40
5.0
100
AcDbArc
 50
0.0
 51
90.0
  0
ARC
  5
1F1
100
AcDbEntity
  8
0
 62
256
370
-1
  6
ByLayer
100
AcDbCircle
 10
355.0
 20
95.0
 30
0.0
 40
5.0
100
AcDbArc
 50
90.0
 51
180.0
  0
LINE
  5
1F2
100
AcDbEntity
100
AcDbLine
  8
0
 62
256
370
-1
  6
ByLayer
 10
350.0
 20
85.0
 30
0.0
 11
350.0
 21
95.0
 31
0.0
  0
LINE
  5
1F3
100
AcDbEntity
100
AcDbLine
  8
0
 62
256
370
-1
  6
ByLayer
 10
365.0
 20
85.0
 30
0.0
 11
365.0
 21
95.0
 31
0.0
  0
LINE
  5
1F4
100
AcDbEntity
100
AcDbLine
  8
0
 62
256
370
-1
  6
ByLayer
 10
355.0
 20
100.0
 30
0.0
 11
360.0
 21
100.0
 31
0.0
  0
CIRCLE
  5
1F5
100
AcDbEntity
100
AcDbCircle
  8
0
 62
256
370
-1
  6
ByLayer
 10
360.0
 20
95.0
 30
0.0
 40
1.5
  0
LINE
  5
1F6
100
AcDbEntity
100
AcDbLine
  8
0
 62
256
370
-1
  6
ByLayer
 10
285.0
 20
41.0
 30
0.0
 11
280.0
 21
41.0
 31
0.0
  0
LINE
  5
1F7
100
AcDbEntity
100
AcDbLine
  8
0
 62
256
370
-1
  6
ByLayer
 10
280.0
 20
41.0
 30
0.0
 11
280.0
 21
35.0
 31
0.0
  0
LINE
  5
1F8
100
AcDbEntity
100
AcDbLine
  8
0
 62
256
370
-1
  6
ByLayer
 10
280.0
 20
35.0
 30
0.0
 11
285.0
 21
35.0
 31
0.0
  0
LINE
  5
1F9
100
AcDbEntity
100
AcDbLine
  8
0
 62
256
370
-1
  6
ByLayer
 10
325.0
 20
35.0
 30
0.0
 11
320.0
 21
35.0
 31
0.0
  0
LINE
  5
1FA
100
AcDbEntity
100
AcDbLine
  8
0
 62
256
370
-1
  6
ByLayer
 10
320.0
 20
35.0
 30
0.0
 11
320.0
 21
29.0
 31
0.0
  0
LINE
  5
1FB
100
AcDbEntity
100
AcDbLine
  8
0
 62
256
370
-1
  6
ByLayer
 10
320.0
 20
29.0
 30
0.0
 11
325.0
 21
29.0
 31
0.0
  0
LINE
  5
1FC
100
AcDbEntity
100
AcDbLine
  8
0
 62
256
370
-1
  6
ByLayer
 10
245.0
 20
85.0
 30
0.0
 11
245.0
 21
38.0
 31
0.0
  0
LINE
  5
1FD
100
AcDbEntity
100
AcDbLine
  8
0
 62
256
370
-1
  6
ByLayer
 10
245.0
 20
30.0
 30
0.0
 11
245.0
 21
32.0
 31
0.0
  0
LINE
  5
1FE
100
AcDbEntity
100
AcDbLine
  8
0
 62
256
370
-1
  6
ByLayer
 10
285.0
 20
95.0
 30
0.0
 11
285.0
 21
41.0
 31
0.0
  0
LINE
  5
1FF
100
AcDbEntity
100
AcDbLine
  8
0
 62
256
370
-1
  6
ByLayer
 10
285.0
 20
35.0
 30
0.0
 11
285.0
 21
30.0
 31
0.0
  0
LINE
  5
200
100
AcDbEntity
100
AcDbLine
  8
0
 62
256
370
-1
  6
ByLayer
 10
325.0
 20
85.0
 30
0.0
 11
325.0
 21
35.0
 31
0.0
  0
LINE
  5
201
100
AcDbEntity
100
AcDbLine
  8
0
 62
256
370
-1
  6
ByLayer
 10
365.0
 20
38.0
 30
0.0
 11
365.0
 21
85.0
 31
0.0
  0
LINE
  5
202
100
AcDbEntity
100
AcDbLine
  8
0
 62
256
370
-1
  6
ByLayer
 10
365.0
 20
32.0
 30
0.0
 11
365.0
 21
30.0
 31
0.0
  0
ARC
  5
203
100
AcDbEntity
  8
0
 62
256
370
-1
  6
ByLayer
100
AcDbCircle
 10
330.0
 20
30.0
 30
0.0
 40
5.0
100
AcDbArc
 50
191.5369590328154459
 51
270.0
  0
CIRCLE
  5
204
100
AcDbEntity
100
AcDbCircle
  8
0
 62
256
370
-1
  6
ByLayer
 10
240.0
 20
85.0
 30
0.0
 40
1.5
  0
CIRCLE
  5
205
100
AcDbEntity
100
AcDbCircle
  8
0
 62
256
370
-1
  6
ByLayer
 10
280.0
 20
85.0
 30
0.0
 40
1.5
  0
CIRCLE
  5
206
100
AcDbEntity
100
AcDbCircle
  8
0
 62
256
370
-1
  6
ByLayer
 10
320.0
 20
85.0
 30
0.0
 40
1.5
  0
CIRCLE
  5
207
100
AcDbEntity
100
AcDbCircle
  8
0
 62
256
370
-1
  6
ByLayer
 10
360.0
 20
85.0
 30
0.0
 40
1.5
  0
INSERT
  5
208
100
AcDbEntity
100
AcDbBlockReference
  8
0
 62
256
370
-1
  6
ByLayer
  2
servo_mount-0
 10
149.9999999999999716
 20
190.0
 30
0.0
 50
90.0
  0
INSERT
  5
209
100
AcDbEntity
100
AcDbBlockReference
  8
0
 62
256
370
-1
  6
ByLayer
  2
servo_mount-1
 10
150.0000000000001137
 20
340.0
 30
0.0
 41
1.0
 42
-1.0
 43
1.0
 50
270.0
  0
LINE
  5
20A
100
AcDbEntity
100
AcDbLine
  8
guide
 62
256
370
-1
  6
ByLayer
 10
100.0
 20
280.0
 30
0.0
 11
110.0
 21
250.0
 31
0.0
  0
LINE
  5
20B
100
AcDbEntity
100
AcDbLine
  8
guide
 62
256
370
-1
  6
ByLayer
 10
100.0
 20
250.0
 30
0.0
 11
110.0
 21
280.0
 31
0.0
  0
ARC
  5
20C
100
AcDbEntity
  8
0
 62
256
370
-1
  6
ByLayer
100
AcDbCircle
 10
105.0
 20
255.0
 30
0.0
 40
5.0
100
AcDbArc
 50
180.0
 51
270.0
  0
LINE
  5
20D
100
AcDbEntity
100
AcDbLine
  8
0
 62
256
370
-1
  6
ByLayer
 10
105.0
 20
250.0
 30
0.0
 11
105.0
 21
250.0
 31
0.0
  0
ARC
  5
20E
100
AcDbEntity
  8
0
 62
256
370
-1
  6
ByLayer
100
AcDbCircle
 10
105.0
 20
255.0
 30
0.0
 40
5.0
100
AcDbArc
 50
270.0
 51
360.0
  0
LINE
  5
20F
100
AcDbEntity
100
AcDbLine
  8
0
 62
256
370
-1
  6
ByLayer
 10
100.0
 20
255.0
 30
0.0
 11
100.0
 21
275.0
 31
0.0
  0
ARC
  5
210
100
AcDbEntity
  8
0
 62
256
370
-1
  6
ByLayer
100
AcDbCircle
 10
105.0
 20
275.0
 30
0.0
 40
5.0
100
AcDbArc
 50
90.0
 51
180.0
  0
LINE
  5
211
100
AcDbEntity
100
AcDbLine
  8
0
 62
256
370
-1
  6
ByLayer
 10
105.0
 20
280.0
 30
0.0
 11
105.0
 21
280.0
 31
0.0
  0
LINE
  5
212
100
AcDbEntity
100
AcDbLine
  8
0
 62
256
370
-1
  6
ByLayer
 10
110.0
 20
275.0
 30
0.0
 11
110.0
 21
255.0
 31
0.0
  0
ARC
  5
213
100
AcDbEntity
  8
0
 62
256
370
-1
  6
ByLayer
100
AcDbCircle
 10
105.0
 20
275.0
 30
0.0
 40
5.0
100
AcDbArc
 50
360.0
 51
90.0
  0
ARC
  5
214
100
AcDbEntity
  8
0
 62
256
370
-1
  6
ByLayer
100
AcDbCircle
 10
35.0
 20
335.0
 30
0.0
 40
5.0
100
AcDbArc
 50
90.0
 51
180.0
  0
LINE
  5
215
100
AcDbEntity
100
AcDbLine
  8
0
 62
256
370
-1
  6
ByLayer
 10
29.9999999999999964
 20
335.0
 30
0.0
 11
29.9999999999999183
 21
195.0000000000000284
 31
0.0
  0
ARC
  5
216
100
AcDbEntity
  8
0
 62
256
370
-1
  6
ByLayer
100
AcDbCircle
 10
34.9999999999999147
 20
195.0000000000000568
 30
0.0
 40
5.0
100
AcDbArc
 50
180.0000000000003411
 51
269.9999999999998863
  0
LINE
  5
217
100
AcDbEntity
100
AcDbLine
  8
0
 62
256
370
-1
  6
ByLayer
 10
280.0
 20
240.5
 30
0.0
 11
280.0
 21
290.5
 31
0.0
  0
LINE
  5
218
100
AcDbEntity
100
AcDbLine
  8
0
 62
256
370
-1
  6
ByLayer
 10
180.0
 20
290.5
 30
0.0
 11
180.0
 21
240.5
 31
0.0
  0
LINE
  5
219
100
AcDbEntity
100
AcDbLine
  8
0
 62
256
370
-1
  6
ByLayer
 10
190.0
 20
271.0
 30
0.0
 11
210.0
 21
271.0
 31
0.0
  0
LINE
  5
21A
100
AcDbEntity
100
AcDbLine
  8
0
 62
256
370
-1
  6
ByLayer
 10
210.0
 20
271.0
 30
0.0
 11
210.0
 21
260.0
 31
0.0
  0
LINE
  5
21B
100
AcDbEntity
100
AcDbLine
  8
0
 62
256
370
-1
  6
ByLayer
 10
210.0
 20
260.0
 30
0.0
 11
190.0
 21
260.0
 31
0.0
  0
LINE
  5
21C
100
AcDbEntity
100
AcDbLine
  8
0
 62
256
370
-1
  6
ByLayer
 10
190.0
 20
260.0
 30
0.0
 11
190.0
 21
271.0
 31
0.0
  0
LINE
  5
21D
100
AcDbEntity
100
AcDbLine
  8
0
 62
256
370
-1
  6
ByLayer
 10
220.0
 20
271.0
 30
0.0
 11
240.0
 21
271.0
 31
0.0
  0
LINE
  5
21E
100
AcDbEntity
100
AcDbLine
  8
0
 62
256
370
-1
  6
ByLayer
 10
240.0
 20
271.0
 30
0.0
 11
240.0
 21
260.0
 31
0.0
  0
LINE
  5
21F
100
AcDbEntity
100
AcDbLine
  8
0
 62
256
370
-1
  6
ByLayer
 10
240.0
 20
260.0
 30
0.0
 11
220.0
 21
260.0
 31
0.0
  0
LINE
  5
220
100
AcDbEntity
100
AcDbLine
  8
0
 62
256
370
-1
  6
ByLayer
 10
220.0
 20
260.0
 30
0.0
 11
220.0
 21
271.0
 31
0.0
  0
LINE
  5
221
100
AcDbEntity
100
AcDbLine
  8
0
 62
256
370
-1
  6
ByLayer
 10
250.0
 20
271.0
 30
0.0
 11
270.0
 21
271.0
 31
0.0
  0
LINE
  5
222
100
AcDbEntity
100
AcDbLine
  8
0
 62
256
370
-1
  6
ByLayer
 10
270.0
 20
271.0
 30
0.0
 11
270.0
 21
260.0
 31
0.0
  0
LINE
  5
223
100
AcDbEntity
100
AcDbLine
  8
0
 62
256
370
-1
  6
ByLayer
 10
270.0
 20
260.0
 30
0.0
 11
250.0
 21
260.0
 31
0.0
  0
LINE
  5
224
100
AcDbEntity
100
AcDbLine
  8
0
 62
256
370
-1
  6
ByLayer
 10
250.0
 20
260.0
 30
0.0
 11
250.0
 21
271.0
 31
0.0
  0
LINE
  5
225
100
AcDbEntity
100
AcDbLine
  8
0
 62
256
370
-1
  6
ByLayer
 10
180.0
 20
290.5
 30
0.0
 11
190.0
 21
290.5
 31
0.0
  0
LINE
  5
226
100
AcDbEntity
100
AcDbLine
  8
0
 62
256
370
-1
  6
ByLayer
 10
190.0
 20
290.5
 30
0.0
 11
190.0
 21
295.5
 31
0.0
  0
LINE
  5
227
100
AcDbEntity
100
AcDbLine
  8
0
 62
256
370
-1
  6
ByLayer
 10
190.0
 20
295.5
 30
0.0
 11
210.0
 21
295.5
 31
0.0
  0
LINE
  5
228
100
AcDbEntity
100
AcDbLine
  8
0
 62
256
370
-1
  6
ByLayer
 10
210.0
 20
295.5
 30
0.0
 11
210.0
 21
290.5
 31
0.0
  0
LINE
  5
229
100
AcDbEntity
100
AcDbLine
  8
0
 62
256
370
-1
  6
ByLayer
 10
210.0
 20
290.5
 30
0.0
 11
220.0
 21
290.5
 31
0.0
  0
LINE
  5
22A
100
AcDbEntity
100
AcDbLine
  8
0
 62
256
370
-1
  6
ByLayer
 10
220.0
 20
290.5
 30
0.0
 11
220.0
 21
295.5
 31
0.0
  0
LINE
  5
22B
100
AcDbEntity
100
AcDbLine
  8
0
 62
256
370
-1
  6
ByLayer
 10
220.0
 20
295.5
 30
0.0
 11
240.0
 21
295.5
 31
0.0
  0
LINE
  5
22C
100
AcDbEntity
100
AcDbLine
  8
0
 62
256
370
-1
  6
ByLayer
 10
240.0
 20
295.5
 30
0.0
 11
240.0
 21
290.5
 31
0.0
  0
LINE
  5
22D
100
AcDbEntity
100
AcDbLine
  8
0
 62
256
370
-1
  6
ByLayer
 10
240.0
 20
290.5
 30
0.0
 11
250.0
 21
290.5
 31
0.0
  0
LINE
  5
22E
100
AcDbEntity
100
AcDbLine
  8
0
 62
256
370
-1
  6
ByLayer
 10
250.0
 20
290.5
 30
0.0
 11
250.0
 21
295.5
 31
0.0
  0
LINE
  5
22F
100
AcDbEntity
100
AcDbLine
  8
0
 62
256
370
-1
  6
ByLayer
 10
250.0
 20
295.5
 30
0.0
 11
270.0
 21
295.5
 31
0.0
  0
LINE
  5
230
100
AcDbEntity
100
AcDbLine
  8
0
 62
256
370
-1
  6
ByLayer
 10
270.0
 20
295.5
 30
0.0
 11
270.0
 21
290.5
 31
0.0
  0
LINE
  5
231
100
AcDbEntity
100
AcDbLine
  8
0
 62
256
370
-1
  6
ByLayer
 10
270.0
 20
290.5
 30
0.0
 11
280.0
 21
290.5
 31
0.0
  0
LINE
  5
232
100
AcDbEntity
100
AcDbLine
  8
0
 62
256
370
-1
  6
ByLayer
 10
280.0
 20
240.5
 30
0.0
 11
270.0
 21
240.5
 31
0.0
  0
LINE
  5
233
100
AcDbEntity
100
AcDbLine
  8
0
 62
256
370
-1
  6
ByLayer
 10
270.0
 20
240.5
 30
0.0
 11
270.0
 21
235.5
 31
0.0
  0
LINE
  5
234
100
AcDbEntity
100
AcDbLine
  8
0
 62
256
370
-1
  6
ByLayer
 10
270.0
 20
235.5
 30
0.0
 11
249.9999999999999716
 21
235.5
 31
0.0
  0
LINE
  5
235
100
AcDbEntity
100
AcDbLine
  8
0
 62
256
370
-1
  6
ByLayer
 10
249.9999999999999716
 20
235.5
 30
0.0
 11
250.0
 21
240.5
 31
0.0
  0
LINE
  5
236
100
AcDbEntity
100
AcDbLine
  8
0
 62
256
370
-1
  6
ByLayer
 10
250.0
 20
240.5
 30
0.0
 11
240.0
 21
240.5
 31
0.0
  0
LINE
  5
237
100
AcDbEntity
100
AcDbLine
  8
0
 62
256
370
-1
  6
ByLayer
 10
240.0
 20
240.5
 30
0.0
 11
240.0
 21
235.5
 31
0.0
  0
LINE
  5
238
100
AcDbEntity
100
AcDbLine
  8
0
 62
256
370
-1
  6
ByLayer
 10
240.0
 20
235.5
 30
0.0
 11
220.0
 21
235.5
 31
0.0
  0
LINE
  5
239
100
AcDbEntity
100
AcDbLine
  8
0
 62
256
370
-1
  6
ByLayer
 10
220.0
 20
235.5
 30
0.0
 11
220.0
 21
240.5
 31
0.0
  0
LINE
  5
23A
100
AcDbEntity
100
AcDbLine
  8
0
 62
256
370
-1
  6
ByLayer
 10
220.0
 20
240.5
 30
0.0
 11
210.0
 21
240.5
 31
0.0
  0
LINE
  5
23B
100
AcDbEntity
100
AcDbLine
  8
0
 62
256
370
-1
  6
ByLayer
 10
210.0
 20
240.5
 30
0.0
 11
210.0
 21
235.5
 31
0.0
  0
LINE
  5
23C
100
AcDbEntity
100
AcDbLine
  8
0
 62
256
370
-1
  6
ByLayer
 10
210.0
 20
235.5
 30
0.0
 11
190.0
 21
235.5
 31
0.0
  0
LINE
  5
23D
100
AcDbEntity
100
AcDbLine
  8
0
 62
256
370
-1
  6
ByLayer
 10
190.0
 20
235.5
 30
0.0
 11
190.0
 21
240.5
 31
0.0
  0
LINE
  5
23E
100
AcDbEntity
100
AcDbLine
  8
0
 62
256
370
-1
  6
ByLayer
 10
190.0
 20
240.5
 30
0.0
 11
180.0
 21
240.5
 31
0.0
  0
CIRCLE
  5
23F
100
AcDbEntity
100
AcDbCircle
  8
0
 62
256
370
-1
  6
ByLayer
 10
185.0
 20
281.25
 30
0.0
 40
1.5
  0
CIRCLE
  5
240
100
AcDbEntity
100
AcDbCircle
  8
0
 62
256
370
-1
  6
ByLayer
 10
215.0
 20
281.25
 30
0.0
 40
1.5
  0
CIRCLE
  5
241
100
AcDbEntity
100
AcDbCircle
  8
0
 62
256
370
-1
  6
ByLayer
 10
245.0
 20
281.25
 30
0.0
 40
1.5
  0
CIRCLE
  5
242
100
AcDbEntity
100
AcDbCircle
  8
0
 62
256
370
-1
  6
ByLayer
 10
275.0
 20
281.25
 30
0.0
 40
1.5
  0
CIRCLE
  5
243
100
AcDbEntity
100
AcDbCircle
  8
0
 62
256
370
-1
  6
ByLayer
 10
200.0
 20
281.25
 30
0.0
 40
1.5
  0
CIRCLE
  5
244
100
AcDbEntity
100
AcDbCircle
  8
0
 62
256
370
-1
  6
ByLayer
 10
230.0
 20
281.25
 30
0.0
 40
1.5
  0
CIRCLE
  5
245
100
AcDbEntity
100
AcDbCircle
  8
0
 62
256
370
-1
  6
ByLayer
 10
260.0
 20
281.25
 30
0.0
 40
1.5
  0
CIRCLE
  5
246
100
AcDbEntity
100
AcDbCircle
  8
0
 62
256
370
-1
  6
ByLayer
 10
185.0
 20
250.5
 30
0.0
 40
1.5
  0
CIRCLE
  5
247
100
AcDbEntity
100
AcDbCircle
  8
0
 62
256
370
-1
  6
ByLayer
 10
215.0
 20
250.5
 30
0.0
 40
1.5
  0
CIRCLE
  5
248
100
AcDbEntity
100
AcDbCircle
  8
0
 62
256
370
-1
  6
ByLayer
 10
245.0
 20
250.5
 30
0.0
 40
1.5
  0
CIRCLE
  5
249
100
AcDbEntity
100
AcDbCircle
  8
0
 62
256
370
-1
  6
ByLayer
 10
275.0
 20
250.5
 30
0.0
 40
1.5
  0
CIRCLE
  5
24A
100
AcDbEntity
100
AcDbCircle
  8
0
 62
256
370
-1
  6
ByLayer
 10
200.0
 20
250.5
 30
0.0
 40
1.5
  0
CIRCLE
  5
24B
100
AcDbEntity
100
AcDbCircle
  8
0
 62
256
370
-1
  6
ByLayer
 10
230.0
 20
250.5
 30
0.0
 40
1.5
  0
CIRCLE
  5
24C
100
AcDbEntity
100
AcDbCircle
  8
0
 62
256
370
-1
  6
ByLayer
 10
260.0
 20
250.5
 30
0.0
 40
1.5
  0
LINE
  5
24D
100
AcDbEntity
100
AcDbLine
  8
guide
 62
256
370
-1
  6
ByLayer
 10
190.0
 20
265.5
 30
0.0
 11
270.0
 21
265.5
 31
0.0
  0
LINE
  5
24E
100
AcDbEntity
100
AcDbLine
  8
guide
 62
256
370
-1
  6
ByLayer
 10
230.0
 20
271.0
 30
0.0
 11
230.0
 21
260.0
 31
0.0
  0
LINE
  5
24F
100
AcDbEntity
100
AcDbLine
  8
noname
 62
256
370
-1
  6
ByLayer
 10
154.8999999999999773
 20
240.0000000000000568
 30
0.0
 11
154.8999999999999773
 21
290.0000000000000568
 31
0.0
  0
LINE
  5
250
100
AcDbEntity
100
AcDbLine
  8
noname
 62
256
370
-1
  6
ByLayer
 10
54.8999999999999773
 20
290.0000000000000568
 30
0.0
 11
54.8999999999999773
 21
240.0000000000000568
 31
0.0
  0
LINE
  5
251
100
AcDbEntity
100
AcDbLine
  8
noname
 62
256
370
-1
  6
ByLayer
 10
64.8999999999999773
 20
270.5000000000000568
 30
0.0
 11
84.8999999999999773
 21
270.5000000000000568
 31
0.0
  0
LINE
  5
252
100
AcDbEntity
100
AcDbLine
  8
noname
 62
256
370
-1
  6
ByLayer
 10
84.8999999999999773
 20
270.5000000000000568
 30
0.0
 11
84.8999999999999773
 21
259.5000000000000568
 31
0.0
  0
LINE
  5
253
100
AcDbEntity
100
AcDbLine
  8
noname
 62
256
370
-1
  6
ByLayer
 10
84.8999999999999773
 20
259.5000000000000568
 30
0.0
 11
64.8999999999999773
 21
259.5000000000000568
 31
0.0
  0
LINE
  5
254
100
AcDbEntity
100
AcDbLine
  8
noname
 62
256
370
-1
  6
ByLayer
 10
64.8999999999999773
 20
259.5000000000000568
 30
0.0
 11
64.8999999999999773
 21
270.5000000000000568
 31
0.0
  0
LINE
  5
255
100
AcDbEntity
100
AcDbLine
  8
noname
 62
256
370
-1
  6
ByLayer
 10
94.8999999999999773
 20
270.5000000000000568
 30
0.0
 11
114.8999999999999773
 21
270.5000000000000568
 31
0.0
  0
LINE
  5
256
100
AcDbEntity
100
AcDbLine
  8
noname
 62
256
370
-1
  6
ByLayer
 10
114.8999999999999773
 20
270.5000000000000568
 30
0.0
 11
114.8999999999999773
 21
259.5000000000000568
 31
0.0
  0
LINE
  5
257
100
AcDbEntity
100
AcDbLine
  8
noname
 62
256
370
-1
  6
ByLayer
 10
114.8999999999999773
 20
259.5000000000000568
 30
0.0
 11
94.8999999999999773
 21
259.5000000000000568
 31
0.0
  0
LINE
  5
258
100
AcDbEntity
100
AcDbLine
  8
noname
 62
256
370
-1
  6
ByLayer
 10
94.8999999999999773
 20
259.5000000000000568
 30
0.0
 11
94.8999999999999773
 21
270.5000000000000568
 31
0.0
  0
LINE
  5
259
100
AcDbEntity
100
AcDbLine
  8
noname
 62
256
370
-1
  6
ByLayer
 10
124.8999999999999773
 20
270.5000000000000568
 30
0.0
 11
144.8999999999999773
 21
270.5000000000000568
 31
0.0
  0
LINE
  5
25A
100
AcDbEntity
100
AcDbLine
  8
noname
 62
256
370
-1
  6
ByLayer
 10
144.8999999999999773
 20
270.5000000000000568
 30
0.0
 11
144.8999999999999773
 21
259.5000000000000568
 31
0.0
  0
LINE
  5
25B
100
AcDbEntity
100
AcDbLine
  8
noname
 62
256
370
-1
  6
ByLayer
 10
144.8999999999999773
 20
259.5000000000000568
 30
0.0
 11
124.8999999999999773
 21
259.5000000000000568
 31
0.0
  0
LINE
  5
25C
100
AcDbEntity
100
AcDbLine
  8
noname
 62
256
370
-1
  6
ByLayer
 10
124.8999999999999773
 20
259.5000000000000568
 30
0.0
 11
124.8999999999999773
 21
270.5000000000000568
 31
0.0
  0
LINE
  5
25D
100
AcDbEntity
100
AcDbLine
  8
noname
 62
256
370
-1
  6
ByLayer
 10
54.8999999999999773
 20
290.0000000000000568
 30
0.0
 11
64.8999999999999773
 21
290.0000000000000568
 31
0.0
  0
LINE
  5
25E
100
AcDbEntity
100
AcDbLine
  8
noname
 62
256
370
-1
  6
ByLayer
 10
64.8999999999999773
 20
290.0000000000000568
 30
0.0
 11
64.8999999999999773
 21
295.0000000000000568
 31
0.0
  0
LINE
  5
25F
100
AcDbEntity
100
AcDbLine
  8
noname
 62
256
370
-1
  6
ByLayer
 10
64.8999999999999773
 20
295.0000000000000568
 30
0.0
 11
84.8999999999999773
 21
295.0000000000000568
 31
0.0
  0
LINE
  5
260
100
AcDbEntity
100
AcDbLine
  8
noname
 62
256
370
-1
  6
ByLayer
 10
84.8999999999999773
 20
295.0000000000000568
 30
0.0
 11
84.8999999999999773
 21
290.0000000000000568
 31
0.0
  0
LINE
  5
261
100
AcDbEntity
100
AcDbLine
  8
noname
 62
256
370
-1
  6
ByLayer
 10
84.8999999999999773
 20
290.0000000000000568
 30
0.0
 11
94.8999999999999773
 21
290.0000000000000568
 31
0.0
  0
LINE
  5
262
100
AcDbEntity
100
AcDbLine
  8
noname
 62
256
370
-1
  6
ByLayer
 10
94.8999999999999773
 20
290.0000000000000568
 30
0.0
 11
94.8999999999999773
 21
295.0000000000000568
 31
0.0
  0
LINE
  5
263
100
AcDbEntity
100
AcDbLine
  8
noname
 62
256
370
-1
  6
ByLayer
 10
94.8999999999999773
 20
295.0000000000000568
 30
0.0
 11
114.8999999999999773
 21
295.0000000000000568
 31
0.0
  0
LINE
  5
264
100
AcDbEntity
100
AcDbLine
  8
noname
 62
256
370
-1
  6
ByLayer
 10
114.8999999999999773
 20
295.0000000000000568
 30
0.0
 11
114.8999999999999773
 21
290.0000000000000568
 31
0.0
  0
LINE
  5
265
100
AcDbEntity
100
AcDbLine
  8
noname
 62
256
370
-1
  6
ByLayer
 10
114.8999999999999773
 20
290.0000000000000568
 30
0.0
 11
124.8999999999999773
 21
290.0000000000000568
 31
0.0
  0
LINE
  5
266
100
AcDbEntity
100
AcDbLine
  8
noname
 62
256
370
-1
  6
ByLayer
 10
124.8999999999999773
 20
290.0000000000000568
 30
0.0
 11
124.8999999999999773
 21
295.0000000000000568
 31
0.0
  0
LINE
  5
267
100
AcDbEntity
100
AcDbLine
  8
noname
 62
256
370
-1
  6
ByLayer
 10
124.8999999999999773
 20
295.0000000000000568
 30
0.0
 11
144.8999999999999773
 21
295.0000000000000568
 31
0.0
  0
LINE
  5
268
100
AcDbEntity
100
AcDbLine
  8
noname
 62
256
370
-1
  6
ByLayer
 10
144.8999999999999773
 20
295.0000000000000568
 30
0.0
 11
144.8999999999999773
 21
290.0000000000000568
 31
0.0
  0
LINE
  5
269
100
AcDbEntity
100
AcDbLine
  8
noname
 62
256
370
-1
  6
ByLayer
 10
144.8999999999999773
 20
290.0000000000000568
 30
0.0
 11
154.8999999999999773
 21
290.0000000000000568
 31
0.0
  0
LINE
  5
26A
100
AcDbEntity
100
AcDbLine
  8
noname
 62
256
370
-1
  6
ByLayer
 10
154.8999999999999773
 20
240.0000000000000568
 30
0.0
 11
144.8999999999999773
 21
240.0000000000000568
 31
0.0
  0
LINE
  5
26B
100
AcDbEntity
100
AcDbLine
  8
noname
 62
256
370
-1
  6
ByLayer
 10
144.8999999999999773
 20
240.0000000000000568
 30
0.0
 11
144.8999999999999773
 21
235.0000000000000568
 31
0.0
  0
LINE
  5
26C
100
AcDbEntity
100
AcDbLine
  8
noname
 62
256
370
-1
  6
ByLayer
 10
144.8999999999999773
 20
235.0000000000000568
 30
0.0
 11
124.8999999999999488
 21
235.0000000000000568
 31
0.0
  0
LINE
  5
26D
100
AcDbEntity
100
AcDbLine
  8
noname
 62
256
370
-1
  6
ByLayer
 10
124.8999999999999488
 20
235.0000000000000568
 30
0.0
 11
124.8999999999999773
 21
240.0000000000000568
 31
0.0
  0
LINE
  5
26E
100
AcDbEntity
100
AcDbLine
  8
noname
 62
256
370
-1
  6
ByLayer
 10
124.8999999999999773
 20
240.0000000000000568
 30
0.0
 11
114.8999999999999773
 21
240.0000000000000568
 31
0.0
  0
LINE
  5
26F
100
AcDbEntity
100
AcDbLine
  8
noname
 62
256
370
-1
  6
ByLayer
 10
114.8999999999999773
 20
240.0000000000000568
 30
0.0
 11
114.8999999999999773
 21
235.0000000000000568
 31
0.0
  0
LINE
  5
270
100
AcDbEntity
100
AcDbLine
  8
noname
 62
256
370
-1
  6
ByLayer
 10
114.8999999999999773
 20
235.0000000000000568
 30
0.0
 11
94.8999999999999773
 21
235.0000000000000568
 31
0.0
  0
LINE
  5
271
100
AcDbEntity
100
AcDbLine
  8
noname
 62
256
370
-1
  6
ByLayer
 10
94.8999999999999773
 20
235.0000000000000568
 30
0.0
 11
94.8999999999999773
 21
240.0000000000000568
 31
0.0
  0
LINE
  5
272
100
AcDbEntity
100
AcDbLine
  8
noname
 62
256
370
-1
  6
ByLayer
 10
94.8999999999999773
 20
240.0000000000000568
 30
0.0
 11
84.8999999999999773
 21
240.0000000000000568
 31
0.0
  0
LINE
  5
273
100
AcDbEntity
100
AcDbLine
  8
noname
 62
256
370
-1
  6
ByLayer
 10
84.8999999999999773
 20
240.0000000000000568
 30
0.0
 11
84.8999999999999773
 21
235.0000000000000568
 31
0.0
  0
LINE
  5
274
100
AcDbEntity
100
AcDbLine
  8
noname
 62
256
370
-1
  6
ByLayer
 10
84.8999999999999773
 20
235.0000000000000568
 30
0.0
 11
64.8999999999999773
 21
235.0000000000000568
 31
0.0
  0
LINE
  5
275
100
AcDbEntity
100
AcDbLine
  8
noname
 62
256
370
-1
  6
ByLayer
 10
64.8999999999999773
 20
235.0000000000000568
 30
0.0
 11
64.8999999999999773
 21
240.0000000000000568
 31
0.0
  0
LINE
  5
276
100
AcDbEntity
100
AcDbLine
  8
noname
 62
256
370
-1
  6
ByLayer
 10
64.8999999999999773
 20
240.0000000000000568
 30
0.0
 11
54.8999999999999773
 21
240.0000000000000568
 31
0.0
  0
LINE
  5
277
100
AcDbEntity
100
AcDbLine
  8
noname
 62
256
370
-1
  6
ByLayer
 10
64.8999999999999773
 20
265.0000000000000568
 30
0.0
 11
144.8999999999999773
 21
265.0000000000000568
 31
0.0
  0
LINE
  5
278
100
AcDbEntity
100
AcDbLine
  8
noname
 62
256
370
-1
  6
ByLayer
 10
104.8999999999999773
 20
270.5000000000000568
 30
0.0
 11
104.8999999999999773
 21
259.5000000000000568
 31
0.0
  0
LINE
  5
279
100
AcDbEntity
100
AcDbLine
  8
guide
 62
256
370
-1
  6
ByLayer
 10
243.5
 20
168.25
 30
0.0
 11
246.5
 21
168.25
 31
0.0
  0
LINE
  5
27A
100
AcDbEntity
100
AcDbLine
  8
guide
 62
256
370
-1
  6
ByLayer
 10
245.0
 20
170.75
 30
0.0
 11
245.0
 21
165.75
 31
0.0
  0
ARC
  5
27B
100
AcDbEntity
  8
0
 62
256
370
-1
  6
ByLayer
100
AcDbCircle
 10
88.9699999999999136
 20
227.4000000000000625
 30
0.0
 40
1.5
100
AcDbArc
 50
180.0
 51
0.0
  0
ARC
  5
27C
100
AcDbEntity
  8
0
 62
256
370
-1
  6
ByLayer
100
AcDbCircle
 10
88.9699999999999136
 20
232.4000000000000625
 30
0.0
 40
1.5
100
AcDbArc
 50
0.0
 51
180.0
  0
LINE
  5
27D
100
AcDbEntity
100
AcDbLine
  8
0
 62
256
370
-1
  6
ByLayer
 10
87.4699999999999136
 20
232.4000000000000625
 30
0.0
 11
87.4699999999999136
 21
227.4000000000000625
 31
0.0
  0
LINE
  5
27E
100
AcDbEntity
100
AcDbLine
  8
0
 62
256
370
-1
  6
ByLayer
 10
90.4699999999999136
 20
232.4000000000000625
 30
0.0
 11
90.4699999999999136
 21
227.4000000000000625
 31
0.0
  0
ARC
  5
27F
100
AcDbEntity
  8
0
 62
256
370
-1
  6
ByLayer
100
AcDbCircle
 10
38.1699999999999307
 20
227.4000000000000625
 30
0.0
 40
1.5
100
AcDbArc
 50
180.0
 51
0.0
  0
ARC
  5
280
100
AcDbEntity
  8
0
 62
256
370
-1
  6
ByLayer
100
AcDbCircle
 10
38.1699999999999307
 20
232.4000000000000625
 30
0.0
 40
1.5
100
AcDbArc
 50
0.0
 51
180.0
  0
LINE
  5
281
100
AcDbEntity
100
AcDbLine
  8
0
 62
256
370
-1
  6
ByLayer
 10
36.6699999999999307
 20
232.4000000000000625
 30
0.0
 11
36.6699999999999307
 21
227.4000000000000625
 31
0.0
  0
LINE
  5
282
100
AcDbEntity
100
AcDbLine
  8
0
 62
256
370
-1
  6
ByLayer
 10
39.6699999999999307
 20
232.4000000000000625
 30
0.0
 11
39.6699999999999307
 21
227.4000000000000625
 31
0.0
  0
ARC
  5
283
100
AcDbEntity
  8
0
 62
256
370
-1
  6
ByLayer
100
AcDbCircle
 10
38.1699999999999449
 20
240.1000000000000512
 30
0.0
 40
1.5
100
AcDbArc
 50
180.0
 51
0.0
  0
ARC
  5
284
100
AcDbEntity
  8
0
 62
256
370
-1
  6
ByLayer
100
AcDbCircle
 10
38.1699999999999449
 20
245.1000000000000512
 30
0.0
 40
1.5
100
AcDbArc
 50
0.0
 51
180.0
  0
LINE
  5
285
100
AcDbEntity
100
AcDbLine
  8
0
 62
256
370
-1
  6
ByLayer
 10
36.6699999999999449
 20
245.1000000000000512
 30
0.0
 11
36.6699999999999449
 21
240.1000000000000512
 31
0.0
  0
LINE
  5
286
100
AcDbEntity
100
AcDbLine
  8
0
 62
256
370
-1
  6
ByLayer
 10
39.6699999999999449
 20
245.1000000000000512
 30
0.0
 11
39.6699999999999449
 21
240.1000000000000512
 31
0.0
  0
CIRCLE
  5
287
100
AcDbEntity
100
AcDbCircle
  8
noname
 62
256
370
-1
  6
ByLayer
 10
149.8999999999999773
 20
285.7500000000000568
 30
0.0
 40
1.5
  0
CIRCLE
  5
288
100
AcDbEntity
100
AcDbCircle
  8
noname
 62
256
370
-1
  6
ByLayer
 10
104.8999999999999773
 20
285.7500000000000568
 30
0.0
 40
1.5
  0
CIRCLE
  5
289
100
AcDbEntity
100
AcDbCircle
  8
noname
 62
256
370
-1
  6
ByLayer
 10
149.8999999999999773
 20
245.0000000000000568
 30
0.0
 40
1.5
  0
CIRCLE
  5
28A
100
AcDbEntity
100
AcDbCircle
  8
noname
 62
256
370
-1
  6
ByLayer
 10
104.8999999999999773
 20
245.0000000000000568
 30
0.0
 40
1.5
  0
ARC
  5
28B
100
AcDbEntity
  8
0
 62
256
370
-1
  6
ByLayer
100
AcDbCircle
 10
88.9699999999999136
 20
240.1000000000000227
 30
0.0
 40
1.5
100
AcDbArc
 50
180.0
 51
0.0
  0
ARC
  5
28C
100
AcDbEntity
  8
0
 62
256
370
-1
  6
ByLayer
100
AcDbCircle
 10
88.9699999999999136
 20
245.1000000000000227
 30
0.0
 40
1.5
100
AcDbArc
 50
0.0
 51
180.0
  0
LINE
  5
28D
100
AcDbEntity
100
AcDbLine
  8
0
 62
256
370
-1
  6
ByLayer
 10
87.4699999999999136
 20
245.1000000000000227
 30
0.0
 11
87.4699999999999136
 21
240.1000000000000227
 31
0.0
  0
LINE
  5
28E
100
AcDbEntity
100
AcDbLine
  8
0
 62
256
370
-1
  6
ByLayer
 10
90.4699999999999136
 20
245.1000000000000227
 30
0.0
 11
90.4699999999999136
 21
240.1000000000000227
 31
0.0
  0
INSERT
  5
28F
100
AcDbEntity
100
AcDbBlockReference
  8
0
 62
256
370
-1
  6
ByLayer
  2
servo_mount-2
 10
28.1699999999999307
 20
310.1000000000000227
 30
0.0
 41
1.0
 42
-1.0
 43
1.0
  0
ARC
  5
290
100
AcDbEntity
  8
0
 62
256
370
-1
  6
ByLayer
100
AcDbCircle
 10
150.0000000000000284
 20
335.0
 30
0.0
 40
5.0
100
AcDbArc
 50
0.0
 51
90.0
  0
LINE
  5
291
100
AcDbEntity
100
AcDbLine
  8
0
 62
256
370
-1
  6
ByLayer
 10
154.9999999999999147
 20
194.9999999999999432
 30
0.0
 11
155.0000000000000284
 21
335.0
 31
0.0
  0
ARC
  5
292
100
AcDbEntity
  8
0
 62
256
370
-1
  6
ByLayer
100
AcDbCircle
 10
149.9999999999999147
 20
194.9999999999999432
 30
0.0
 40
5.0
100
AcDbArc
 50
270.0
 51
0.0
  0
LINE
  5
293
100
AcDbEntity
100
AcDbLine
  8
0
 62
256
370
-1
  6
ByLayer
 10
150.0000000000000284
 20
340.0
 30
0.0
 11
35.0
 21
340.0
 31
0.0
  0
LINE
  5
294
100
AcDbEntity
100
AcDbLine
  8
0
 62
256
370
-1
  6
ByLayer
 10
34.9999999999999076
 20
190.0000000000000568
 30
0.0
 11
149.9999999999999147
 21
189.9999999999999432
 31
0.0
  0
ENDSEC
  0
SECTION
  2
OBJECTS
  0
DICTIONARY
  5
C
100
AcDbDictionary
280
0
281
1
  3
ACAD_GROUP
350
D
  3
ACAD_LAYOUT
350
1A
  3
ACAD_MLINESTYLE
350
17
  3
ACAD_PLOTSETTINGS
350
19
  3
ACAD_PLOTSTYLENAME
350
E
  3
AcDbVariableDictionary
350
295
  0
DICTIONARY
  5
D
100
AcDbDictionary
280
0
281
1
  0
ACDBDICTIONARYWDFLT
  5
E
100
AcDbDictionary
281
1
  3
Normal
350
F
100
AcDbDictionaryWithDefault
340
F
  0
ACDBPLACEHOLDER
  5
F
  0
DICTIONARY
  5
17
100
AcDbDictionary
280
0
281
1
  3
Standard
350
18
  0
MLINESTYLE
  5
18
100
AcDbMlineStyle
  2
STANDARD
 70
0
  3

 62
256
 51
90.0
 52
90.0
 71
2
 49
0.5
 62
256
  6
BYLAYER
 49
-0.5
 62
256
  6
BYLAYER
  0
DICTIONARY
  5
19
100
AcDbDictionary
280
0
281
1
  0
DICTIONARY
  5
1A
100
AcDbDictionary
281
1
  3
Layout1
350
1E
  3
Layout2
350
26
  3
Model
350
22
  0
LAYOUT
  5
1E
100
AcDbPlotSettings
  1

  2
C:\Program Files\AutoCAD 2002\plotters\DWF ePlot (optimized for plotting).pc3
  4

  6

 40
0.0
 41
0.0
 42
0.0
 43
0.0
 44
0.0
 45
0.0
 46
0.0
 47
0.0
 48
0.0
 49
0.0
140
0.0
141
0.0
142
1.0
143
1.0
 70
688
 72
0
 73
0
 74
5
  7

 75
16
147
1.0
148
0.0
149
0.0
100
AcDbLayout
  1
Layout1
 70
1
 71
1
 10
0.0
 20
0.0
 11
420.0
 21
297.0
 12
0.0
 22
0.0
 32
0.0
 14
100000000000000000000.0
 24
100000000000000000000.0
 34
100000000000000000000.0
 15
-100000000000000000000.0
 25
-100000000000000000000.0
 35
-100000000000000000000.0
146
0.0
 13
0.0
 23
0.0
 33
0.0
 16
1.0
 26
0.0
 36
0.0
 17
0.0
 27
1.0
 37
0.0
 76
0
330
1B
  0
LAYOUT
  5
22
100
AcDbPlotSettings
  1

  2
C:\Program Files\AutoCAD 2002\plotters\DWF ePlot (optimized for plotting).pc3
  4

  6

 40
0.0
 41
0.0
 42
0.0
 43
0.0
 44
0.0
 45
0.0
 46
0.0
 47
0.0
 48
0.0
 49
0.0
140
0.0
141
0.0
142
1.0
143
1.0
 70
1712
 72
0
 73
0
 74
0
  7

 75
0
147
1.0
148
0.0
149
0.0
100
AcDbLayout
  1
Model
 70
1
 71
0
 10
0.0
 20
0.0
 11
12.0
 21
9.0
 12
0.0
 22
0.0
 32
0.0
 14
0.0
 24
0.0
 34
0.0
 15
0.0
 25
0.0
 35
0.0
146
0.0
 13
0.0
 23
0.0
 33
0.0
 16
1.0
 26
0.0
 36
0.0
 17
0.0
 27
1.0
 37
0.0
 76
0
330
1F
  0
LAYOUT
  5
26
100
AcDbPlotSettings
  1

  2
C:\Program Files\AutoCAD 2002\plotters\DWF ePlot (optimized for plotting).pc3
  4

  6

 40
0.0
 41
0.0
 42
0.0
 43
0.0
 44
0.0
 45
0.0
 46
0.0
 47
0.0
 48
0.0
 49
0.0
140
0.0
141
0.0
142
1.0
143
1.0
 70
688
 72
0
 73
0
 74
5
  7

 75
16
147
1.0
148
0.0
149
0.0
100
AcDbLayout
  1
Layout2
 70
1
 71
2
 10
0.0
 20
0.0
 11
12.0
 21
9.0
 12
0.0
 22
0.0
 32
0.0
 14
0.0
 24
0.0
 34
0.0
 15
0.0
 25
0.0
 35
0.0
146
0.0
 13
0.0
 23
0.0
 33
0.0
 16
1.0
 26
0.0
 36
0.0
 17
0.0
 27
1.0
 37
0.0
 76
0
330
23
  0
DICTIONARY
  5
295
100
AcDbDictionary
281
1
  3
DIMASSOC
350
297
  3
HIDETEXT
350
296
  0
DICTIONARYVAR
  5
296
100
DictionaryVariables
280
0
  1
2
  0
DICTIONARYVAR
  5
297
100
DictionaryVariables
280
0
  1
1
  0
ENDSEC
  0
EOF
